<svg t="1584512170113" class="icon" viewBox="0 0 1024 1024" version="1.1" xmlns="http://www.w3.org/2000/svg" p-id="7185" width="128" height="128"><path d="M512 0c282.769067 0 512 228.6592 512 510.6688 0 282.112-229.230933 510.7712-512 510.7712S0 792.7808 0 510.7712C0 228.6592 229.230933 0 512 0" fill="#EBF3FD" p-id="7186"></path><path d="M414.574933 723.3536H613.376v87.7568s-49.962667 13.312-99.4048 13.312c-49.9456 0-99.387733-13.312-99.387733-13.312V723.3536" fill="#E1C0A1" p-id="7187"></path><path d="M735.803733 473.4976s1.211733-11.4688 17.3568-11.4688c21.239467 0 32.7168 19.7632 34.7136 24.6784 4.360533 10.8544 10.9056 48.7424-17.3568 74.1376-18.372267 13.7216-46.293333 11.3664-46.293333 11.3664l11.579733-98.7136z m-449.297066-1.9456s-1.211733-11.3664-17.194667-11.3664c-21.051733 0-32.426667 19.7632-34.414933 24.7808-4.334933 10.8544-10.794667 48.8448 17.2032 74.3424 18.2016 13.824 45.8752 11.4688 45.8752 11.4688L286.506667 471.552z" fill="#E9CCAC" p-id="7188"></path><path d="M269.312 339.968s20.232533 249.856 38.212267 297.5744c25.002667 66.3552 79.4368 84.48 120.4224 104.8576 27.682133 13.824 48.503467 22.016 86.016 22.9376 42.538667 0.9216 52.616533-8.4992 80.298666-19.0464 55.099733-21.1968 90.794667-44.7488 114.670934-93.4912 19.780267-40.448 42.0608-299.4176 42.0608-299.4176l-80.2816-99.2256L269.312 339.968" fill="#E9CCAC" p-id="7189"></path><path d="M515.8912 1020.8256l-118.528-196.4032h235.118933l-116.590933 196.4032" fill="#E5EAE6" p-id="7190"></path><path d="M513.962667 822.4768l30.0288 37.7856-14.737067 23.2448 8.704 118.272-22.0672 19.0464-25.873067-19.456 8.661334-117.8624-15.0528-23.9616 30.336-37.0688" fill="#D56163" p-id="7191"></path><path d="M476.3136 132.5056c-189.184 18.1248-209.4592 159.4368-212.744533 190.3616-2.986667 28.0576 5.742933 137.3184 5.742933 137.3184s10.308267 6.3488 11.460267 11.3664c3.037867 13.5168 3.336533 45.9776 3.831466 45.7728 3.2512-1.024 9.540267 0 9.540267 0s-2.568533-118.8864 3.831467-141.1072c7.031467-24.3712 55.441067-47.616 55.441066-47.616s0 9.6256-3.84 19.0464c-4.676267 11.3664-13.3632 22.8352-13.3632 22.8352s24.789333-0.512 43.9552-5.7344c28.603733-7.68 55.432533-20.8896 55.432534-20.8896s0.196267 7.68-3.822934 15.2576c-3.6096 6.656-11.4688 13.312-11.4688 13.312s87.8336-6.7584 152.9088-28.5696c52.548267-17.7152 85.060267-51.4048 85.060267-51.4048s42.837333 15.872 58.308267 87.552c12.808533 59.392 7.645867 108.2368 7.637333 146.944h11.4688s0.392533-34.2016 1.911467-45.7728c2.730667-20.5824 22.920533-18.5344 22.9376-19.1488 0.529067-16.384 15.701333-108.2368 0-177.3568-12.347733-54.3744-61.781333-105.0624-89.8304-118.272-28.049067-13.1072-82.978133-44.544-194.397867-33.8944M515.8912 1020.8256L394.410667 803.4304s-66.363733-2.8672-115.054934 25.3952c-40.32 23.552-67.4816 73.216-75.639466 89.7024 85.76 64.6144 196.411733 102.2976 312.174933 102.2976zM745.309867 826.88c-52.3264-25.7024-115.7888-23.4496-115.7888-23.4496l-113.629867 217.3952c115.7632 0 218.624-37.6832 304.392533-102.4-5.9392-20.992-24.174933-66.4576-74.973866-91.5456z" fill="#2A2725" p-id="7192"></path><path d="M613.367467 769.1264L513.962667 822.4768l51.6096 64.9216 89.856-80.1792-42.069334-38.0928M414.574933 769.1264l99.387734 53.3504-51.6096 62.976-89.821867-78.2336 42.043733-38.0928" fill="#FFFFFE" p-id="7193"></path><path d="M515.797333 697.344c-13.883733 0-34.056533-1.536-49.1008-15.1552a5.256533 5.256533 0 0 1-0.401066-7.4752 5.282133 5.282133 0 0 1 7.517866-0.4096c9.5232 8.4992 22.468267 12.3904 41.984 12.3904 19.584 0 32.571733-3.8912 42.1376-12.5952a5.4016 5.4016 0 0 1 7.534934 0.4096 5.384533 5.384533 0 0 1-0.375467 7.5776c-15.112533 13.6192-35.387733 15.2576-49.297067 15.2576" fill="#D1B595" p-id="7194"></path></svg>