<svg t="1584517610732" class="icon" viewBox="0 0 1024 1024" version="1.1" xmlns="http://www.w3.org/2000/svg" p-id="8244" width="48" height="48"><path d="M750.933333 503.7056V409.6a238.933333 238.933333 0 1 0-477.866666 0v94.1056C273.066667 596.445867 236.2368 685.3632 170.666667 750.933333v68.266667h682.666666v-68.266667a349.5936 349.5936 0 0 1-102.4-247.227733zM512 989.866667a102.4 102.4 0 0 0 102.4-102.4h-204.8a102.4 102.4 0 0 0 102.4 102.4z" fill="#e0f2fe" p-id="8245"></path><path d="M580.266667 238.933333h-136.533334V170.666667a68.266667 68.266667 0 1 1 136.533334 0v68.266666z" fill="#e0f2fe" p-id="8246"></path><path d="M853.333333 785.066667m-34.133333 0a34.133333 34.133333 0 1 0 68.266667 0 34.133333 34.133333 0 1 0-68.266667 0Z" fill="#e0f2fe" p-id="8247"></path><path d="M170.666667 785.066667m-34.133334 0a34.133333 34.133333 0 1 0 68.266667 0 34.133333 34.133333 0 1 0-68.266667 0Z" fill="#e0f2fe" p-id="8248"></path></svg>