<svg t="1584517385401" class="icon" viewBox="0 0 1024 1024" version="1.1" xmlns="http://www.w3.org/2000/svg" p-id="2078" width="48" height="48"><path d="M863.9 20.1H144.2c-17.9 0-34.2 8.2-47.4 20.8-19.1 15.5-31.1 37.7-31.1 61.6v818c0 44.9 30.4 83.1 73.6 83.1h505.3C584 960.3 544.3 889.5 544.3 809.5c0-131.6 107-238.7 238.7-238.7 58.9 0 112.8 21.6 154.5 57.1V103.2c0-44.9-30.4-83.1-73.6-83.1zM440 751.8H276.2c-21.2 0-38.4-17.2-38.4-38.4S255 675 276.2 675H440c21.2 0 38.4 17.2 38.4 38.4-0.1 21.2-17.3 38.4-38.4 38.4z m239.3-207.9h-403c-21.2 0-38.4-17.2-38.4-38.4s17.2-38.4 38.4-38.4h403c21.2 0 38.4 17.2 38.4 38.4-0.1 21.3-17.2 38.4-38.4 38.4z m0-207.8h-403c-21.2 0-38.4-17.2-38.4-38.4s17.2-38.4 38.4-38.4h403c21.2 0 38.4 17.2 38.4 38.4-0.1 21.2-17.2 38.4-38.4 38.4z m0 0" fill="#e0f2fe" p-id="2079"></path><path d="M783.1 635.7c-95.8 0-173.8 78-173.8 173.8 0 95.8 77.9 173.8 173.8 173.8 95.8 0 173.8-77.9 173.8-173.8 0-95.8-78-173.8-173.8-173.8z m67.5 200.7H749.1V723.2c0-14.8 12-26.9 26.9-26.9 14.8 0 26.9 12 26.9 26.9v59.5h47.7c14.8 0 26.9 12 26.9 26.9-0.1 14.8-12.1 26.8-26.9 26.8z m0 0" fill="#e0f2fe" p-id="2080"></path></svg>