<svg t="1582730798954" class="icon" viewBox="0 0 1024 1024" version="1.1" xmlns="http://www.w3.org/2000/svg" p-id="1552" width="48" height="48"><path d="M477.090909 114.036364c-6.981818-4.654545-16.290909-9.309091-25.6-9.309091h-118.690909c-20.945455 0-39.563636 18.618182-39.563636 39.563636v805.236364c0 20.945455 18.618182 39.563636 39.563636 39.563636h118.690909c9.309091 0 18.618182-2.327273 25.6-9.309091V114.036364z" fill="#cccccc" p-id="1553"></path><path d="M693.527273 46.545455L977.454545 935.563636 842.472727 977.454545 558.545455 88.436364 693.527273 46.545455m0-46.545455c-4.654545 0-9.309091 0-13.963637 2.327273l-134.981818 41.890909c-25.6 6.981818-37.236364 34.909091-30.254545 58.181818l283.927272 889.018182c6.981818 18.618182 25.6 32.581818 44.218182 32.581818 4.654545 0 9.309091 0 13.963637-2.327273l134.981818-41.890909c25.6-6.981818 37.236364-34.909091 30.254545-58.181818L737.745455 32.581818C730.763636 11.636364 712.145455 0 693.527273 0z" fill="#333333" p-id="1554"></path><path d="M442.181818 1024h-139.636363c-39.563636 0-69.818182-30.254545-69.818182-69.818182V69.818182c0-39.563636 30.254545-69.818182 69.818182-69.818182h139.636363c39.563636 0 69.818182 30.254545 69.818182 69.818182v884.363636c0 39.563636-30.254545 69.818182-69.818182 69.818182zM302.545455 46.545455c-13.963636 0-23.272727 9.309091-23.272728 23.272727v884.363636c0 13.963636 9.309091 23.272727 23.272728 23.272727h139.636363c13.963636 0 23.272727-9.309091 23.272727-23.272727V69.818182c0-13.963636-9.309091-23.272727-23.272727-23.272727h-139.636363z" fill="#333333" p-id="1555"></path><path d="M418.909091 256h-93.090909c-13.963636 0-23.272727-9.309091-23.272727-23.272727s9.309091-23.272727 23.272727-23.272728h93.090909c13.963636 0 23.272727 9.309091 23.272727 23.272728s-9.309091 23.272727-23.272727 23.272727zM418.909091 814.545455h-93.090909c-13.963636 0-23.272727-9.309091-23.272727-23.272728s9.309091-23.272727 23.272727-23.272727h93.090909c13.963636 0 23.272727 9.309091 23.272727 23.272727s-9.309091 23.272727-23.272727 23.272728z" fill="#333333" p-id="1556"></path><path d="M244.363636 114.036364c-6.981818-4.654545-16.290909-9.309091-25.6-9.309091H97.745455c-20.945455 0-39.563636 18.618182-39.563637 39.563636v805.236364c0 20.945455 18.618182 39.563636 39.563637 39.563636h118.690909c9.309091 0 18.618182-2.327273 25.6-9.309091V114.036364z" fill="#cccccc" p-id="1557"></path><path d="M209.454545 1024H69.818182c-39.563636 0-69.818182-30.254545-69.818182-69.818182V69.818182c0-39.563636 30.254545-69.818182 69.818182-69.818182h139.636363c39.563636 0 69.818182 30.254545 69.818182 69.818182v884.363636c0 39.563636-30.254545 69.818182-69.818182 69.818182zM69.818182 46.545455c-13.963636 0-23.272727 9.309091-23.272727 23.272727v884.363636c0 13.963636 9.309091 23.272727 23.272727 23.272727h139.636363c13.963636 0 23.272727-9.309091 23.272728-23.272727V69.818182c0-13.963636-9.309091-23.272727-23.272728-23.272727H69.818182z" fill="#333333" p-id="1558"></path><path d="M186.181818 256H93.090909c-13.963636 0-23.272727-9.309091-23.272727-23.272727s9.309091-23.272727 23.272727-23.272728h93.090909c13.963636 0 23.272727 9.309091 23.272727 23.272728s-9.309091 23.272727-23.272727 23.272727zM186.181818 814.545455H93.090909c-13.963636 0-23.272727-9.309091-23.272727-23.272728s9.309091-23.272727 23.272727-23.272727h93.090909c13.963636 0 23.272727 9.309091 23.272727 23.272727s-9.309091 23.272727-23.272727 23.272728z" fill="#333333" p-id="1559"></path><path d="M712.145455 109.381818L977.454545 937.890909 851.781818 977.454545 586.472727 148.945455l125.672728-39.563637" fill="#cccccc" p-id="1560"></path><path d="M646.981818 276.945455c-9.309091 0-18.618182-6.981818-23.272727-16.29091-4.654545-11.636364 2.327273-25.6 16.290909-30.254545l67.490909-20.945455c11.636364-4.654545 25.6 2.327273 30.254546 16.29091 4.654545 11.636364-2.327273 25.6-16.29091 30.254545l-67.490909 20.945455c-2.327273-2.327273-4.654545 0-6.981818 0zM816.872727 807.563636c-9.309091 0-18.618182-6.981818-23.272727-16.290909-4.654545-11.636364 2.327273-25.6 16.290909-30.254545l67.490909-20.945455c11.636364-4.654545 25.6 2.327273 30.254546 16.290909 4.654545 11.636364-2.327273 25.6-16.290909 30.254546l-67.49091 20.945454h-6.981818z" fill="#333333" p-id="1561"></path><path d="M693.527273 46.545455" fill="#FFA71A" p-id="1562"></path></svg>