<svg t="1583160641039" class="icon" viewBox="0 0 2341 1024" version="1.1" xmlns="http://www.w3.org/2000/svg" p-id="18155" width="48" height="48"><path d="M0 875.707317c374.009756 96.780488 766.439024 148.292683 1170.731707 148.292683s796.721951-51.512195 1170.731708-148.292683V0H0v875.707317z" fill="#337B62" p-id="18156"></path><path d="M1087.687805 482.653659c16.234146-70.243902-20.292683-125.190244-38.087805-138.614635-17.482927-13.42439-179.512195-94.282927-283.473171 27.160976 7.180488 58.692683 55.258537 110.204878 143.921951 154.22439 105.209756 20.604878 164.214634 6.243902 177.639025-42.770731z" fill="#096758" p-id="18157"></path><path d="M1110.790244 473.287805c-13.42439-24.039024-62.75122-46.829268-146.419512-68.682927-32.156098-8.117073-88.35122-18.731707-167.336586-31.219512l0.624391-3.121951c79.297561 12.487805 135.804878 22.790244 167.64878 31.219512 85.541463 22.165854 134.243902 44.956098 148.292683 69.931707l-2.809756 1.873171z" fill="#35755F" p-id="18158"></path><path d="M1250.341463 379.941463c-40.273171-59.629268-25.912195-124.253659-14.360975-142.985365s133.619512-152.35122 274.419512-76.17561c14.360976 57.443902-12.17561 122.692683-78.985366 195.746341-90.84878 56.507317-151.102439 64.312195-181.073171 23.414634z" fill="#57A374" p-id="18159"></path><path d="M1250.341463 369.326829l-3.121951-0.312195c4.370732-28.409756 41.521951-67.121951 113.326829-118.634146 27.160976-19.356098 75.863415-49.326829 145.482927-89.287805l1.560976 2.809756C1438.282927 203.55122 1389.268293 233.521951 1362.419512 252.878049c-70.243902 49.95122-108.019512 89.287805-112.078049 116.44878z" fill="#80B1A0" p-id="18160"></path></svg>