<svg t="1584517525391" class="icon" viewBox="0 0 1024 1024" version="1.1" xmlns="http://www.w3.org/2000/svg" p-id="6224" width="48" height="48"><path d="M589.696 633.130667s-32.768-9.6-41.514667-14.421334c-17.493333-11.989333-28.394667-35.989333-28.394666-59.989333 0-26.410667 19.648-48 32.768-64.810667 32.768-43.2 50.261333-100.821333 50.261333-165.610666 0-134.421333-87.402667-242.432-194.474667-242.432-107.072 0-194.453333 110.4-194.453333 244.821333 0 64.810667 19.648 122.410667 50.24 165.610667 19.669333 12.010667 32.789333 38.4 32.789333 64.810666a77.525333 77.525333 0 0 1-28.416 60.010667v2.410667c-2.176 0-4.373333 2.389333-4.373333 2.389333-10.922667 7.210667-21.845333 12.010667-34.944 12.010667-83.050667 31.189333-152.96 79.189333-194.474667 139.2h2.176c-10.922667 16.810667-15.296 36.010667-15.296 55.210666 0 57.6 43.712 105.6 98.346667 105.6H696.746667c56.810667 0 100.501333-45.589333 100.501333-105.6 0-24-8.746667-45.610667-19.648-64.810666-41.536-60.010667-107.093333-105.6-187.925333-134.4z m391.125333 105.6c-37.141333-50.410667-93.952-93.610667-166.058666-117.610667 0 0-28.416-7.210667-37.141334-12.010667-15.296-11.989333-24.042667-31.189333-24.042666-52.8 0-24 17.493333-43.2 28.394666-55.210666 28.416-38.4 45.888-88.810667 45.888-146.410667 0-117.610667-76.48-216.021333-172.608-216.021333-15.296 0-30.592 2.410667-43.712 7.210666 32.789333 52.8 50.261333 115.2 50.261334 184.810667 0 74.410667-24.042667 146.410667-65.557334 206.421333l-4.352 4.8v2.410667c-4.373333 4.8-10.922667 11.989333-13.12 19.2 0 2.389333 0 2.389333 2.197334 2.389333 4.352 2.410667 10.922667 4.8 17.472 4.8h2.176l8.746666 4.8c89.6 31.210667 166.058667 86.4 216.32 156.032 21.845333 31.189333 34.965333 67.2 34.965334 105.6 0 21.610667-4.373333 38.4-10.944 57.6h63.36c50.261333 0 89.6-40.789333 89.6-93.610666-2.176-26.389333-8.746667-45.589333-21.845334-62.4z" fill="#e0f2fe" p-id="6225"></path><path d="M399.914667 666.944c-6.72-5.354667-10.730667-12.074667-10.730667-21.461333 0-14.741333 12.053333-26.816 26.816-26.816s26.816 12.074667 26.816 26.816c0 9.386667-4.010667 16.106667-10.730667 21.461333l36.224 127.424c2.688 9.386667 0 18.773333-6.72 25.472l-36.202666 36.202667a12.970667 12.970667 0 0 1-18.773334 0l-36.202666-36.202667c-6.72-6.698667-9.386667-16.085333-6.72-25.472l36.224-127.424z" fill="#e0f2fe" p-id="6226"></path></svg>