<svg t="1583154244590" class="icon" viewBox="0 0 1024 1024" version="1.1" xmlns="http://www.w3.org/2000/svg" p-id="1433" width="48" height="48"><path d="M978.275634 823.603087H115.722161c-18.628445 0-33.869901-15.241455-33.869901-33.869901V134.068357c0-18.628445 15.241455-33.869901 33.869901-33.869901h862.553473c18.628445 0 33.869901 15.241455 33.869901 33.869901v655.664829c0 18.628445-15.241455 33.869901-33.869901 33.869901z" fill="#337b62" fill-opacity=".6" p-id="1434"></path><path d="M968.961411 186.002205v604.859978c0 15.805954-13.54796 28.789416-29.918412 28.789416h-33.587652V250.919515c0-15.805954-13.54796-28.789416-29.918412-28.789416H83.828004V186.002205c0-15.805954 13.54796-28.789416 29.918413-28.789416h825.296582c16.370452 0 29.918412 12.983462 29.918412 28.789416z" fill="#C89891" opacity=".5" p-id="1435"></path><path d="M936.785006 863.117971H108.665932c-10.725469 0-21.450937 0.564498-32.176406 0-12.983462-0.564498-19.475193-8.467475-19.757442-20.886438-1.411246-110.359427 0-220.718853 0-330.796031v-210.275634c0-36.127894-1.975744-72.820287 0-108.665932 0.846748-13.830209 10.16097-18.628445 22.297684-18.628445h843.36053c9.314223 0 20.886439-1.693495 27.378169 6.209481 6.209482 7.620728 3.669239 22.297685 3.66924 31.329659v621.512679c0.282249 12.418964 1.411246 29.071665-16.652701 30.200661-21.733186 1.128997-21.733186 34.998897 0 33.869901 32.740904-1.693495 50.804851-26.813671 50.804851-57.578831v-47.98236-190.800441V212.251378c0-11.854465 1.128997-25.120176-2.257994-36.692392-7.620728-25.120176-31.047409-35.563396-55.320838-35.563396H384.141125c-101.891951 0-203.501654-0.846748-305.393606 0-29.918412 0.282249-54.191841 19.475193-55.603087 50.804851-0.282249 8.749724 0 17.499449 0 26.249173V841.949283c0.282249 30.200662 19.757442 53.909592 51.087101 55.320838 26.813671 1.128997 54.191841 0 81.005512 0H936.785006c21.733186-0.282249 21.733186-34.15215 0-34.15215z" fill="#000000"  stroke="#000000" stroke-width="20" p-id="1436"></path><path d="M797.918412 559.135612c53.909592 0 107.819184 0.282249 161.728777 0.282249 21.733186 0 21.733186-33.869901 0-33.869901-53.909592 0-107.819184-0.282249-161.728777-0.282249-21.733186 0-21.733186 33.869901 0 33.869901zM42.901874 557.724366c66.046307 0 132.092613 0.282249 197.856671 0.282249 55.038589 0 109.794928 0.282249 164.833517 0.282249 39.514884 0 78.747519 0.282249 118.262403 0.28225 21.733186 0 21.733186-33.869901 0-33.869901-53.627343 0-107.536935-0.282249-161.164278-0.282249-80.158765-0.282249-160.035281-0.282249-240.194046-0.564499-26.531422 0-53.345094 0-79.876516-0.282249-21.733186 0.282249-21.733186 34.15215 0.282249 34.15215z" p-id="1437"></path><path d="M104.149945 309.062845v188.824696c0 21.733186 33.869901 21.733186 33.869901 0v-188.824696c0-21.733186-33.869901-21.733186-33.869901 0z" fill="#FFFFFF" p-id="1438"></path><path d="M122.496141 254.588754m-19.192944 0a19.192944 19.192944 0 1 0 38.385888 0 19.192944 19.192944 0 1 0-38.385888 0Z" fill="#FFFFFF" p-id="1439"></path><path d="M661.874311 545.869901m-135.761852 0a135.761852 135.761852 0 1 0 271.523704 0 135.761852 135.761852 0 1 0-271.523704 0Z" fill="#FFFFFF" p-id="1440"></path><path d="M782.959206 545.587652c0 67.739802-52.498346 122.77839-117.415656 122.77839-2.540243 0-4.798236 0-7.338478-0.282249 51.651599-12.983462 89.755237-61.53032 89.755237-119.3914 0-65.199559-48.546858-118.826902-110.077178-122.778391 8.749724-2.257993 18.063947-3.38699 27.660419-3.38699 64.91731 0 117.415656 55.038589 117.415656 123.06064z" fill="#DCDDDD" opacity=".5" p-id="1441"></path><path d="M659.898567 542.482911m-64.635061 0a64.635061 64.635061 0 1 0 129.270121 0 64.635061 64.635061 0 1 0-129.270121 0Z" fill="#F1B2A8" p-id="1442"></path><path d="M725.380375 543.611907c0 35.845645-29.071665 64.635061-64.635061 64.635061h-1.693495c25.402426-8.749724 43.466373-32.740904 43.466373-61.248071 0-35.281147-27.942668-63.788313-62.941566-64.63506 6.491731-2.257993 13.54796-3.669239 21.168688-3.669239 35.563396 0 64.635061 29.071665 64.635061 64.917309z" fill="#337b62" opacity=".5" p-id="1443"></path></svg>