<svg t="1583825965704" class="icon" viewBox="0 0 1024 1024" version="1.1" xmlns="http://www.w3.org/2000/svg" p-id="2223" width="128" height="128"><path d="M519.68 704c-51.2 0-94.72-23.04-122.88-66.56-10.24-15.36-10.24-38.4 10.24-46.08 15.36-10.24 38.4-10.24 46.08 10.24 15.36 23.04 43.52 33.28 66.56 33.28 28.16 0 51.2-15.36 66.56-38.4 10.24-15.36 33.28-17.92 46.08-10.24s17.92 33.28 10.24 46.08c-25.6 43.52-71.68 66.56-122.88 71.68zM844.8 977.92H514.56c-256 0-463.36-207.36-463.36-463.36S263.68 56.32 514.56 56.32 972.8 263.68 972.8 519.68c0 112.64-43.52 222.72-117.76 307.2-15.36 15.36-33.28 15.36-51.2 5.12-15.36-15.36-15.36-33.28-5.12-51.2C860.16 709.12 896 614.4 896 519.68c0-212.48-174.08-386.56-386.56-386.56S122.88 307.2 122.88 519.68s179.2 386.56 391.68 386.56H844.8c17.92 0 38.4 15.36 38.4 38.4 0 20.48-15.36 33.28-38.4 33.28z" fill="#333333" p-id="2224"></path></svg>