<svg t="1582726470436" class="icon" viewBox="0 0 1024 1024" version="1.1" xmlns="http://www.w3.org/2000/svg" p-id="1604" width="48" height="48"><path d="M1017.414307 557.600404l-75.248573-119.405846a42.778562 42.778562 0 0 1-5.608547-31.827504l29.873213-137.941494c4.658173-21.497202-7.778681-43.014482-28.718709-49.734031l-134.395995-43.099815a42.748444 42.748444 0 0 1-24.754911-20.769362l-65.781638-124.865479C702.532504 10.490929 679.178056 1.996121 658.813607 10.308551l-130.666444 53.378248a42.812025 42.812025 0 0 1-32.309384 0L365.193086 10.31859c-20.364449-8.31243-43.718897 0.182378-53.975579 19.648322l-65.781638 124.853767a42.748444 42.748444 0 0 1-24.754912 20.769362L86.286636 218.689856c-20.95174 6.719549-33.376882 28.238502-28.718709 49.734031l29.861501 137.941494a42.730039 42.730039 0 0 1-5.608548 31.827504L6.582347 557.600404c-11.730766 18.610941-7.403885 43.078063 9.978931 56.562337l111.541833 86.465668a42.743424 42.743424 0 0 1 16.164731 27.992542l19.114573 139.833877c2.96992 21.79503 22.019238 37.769017 43.986608 36.914015l141.03021-5.459633a42.790274 42.790274 0 0 1 30.375172 11.046429l104.511069 94.83164c16.293567 14.77598 41.155563 14.77598 57.437418 0l104.522782-94.83164a42.684863 42.684863 0 0 1 30.375171-11.046429l141.018498 5.459633c21.987448 0.855002 41.016688-15.129024 43.996647-36.914015l19.114573-139.833877a42.775215 42.775215 0 0 1 16.154692-27.992542l111.541833-86.465668c17.381144-13.484274 21.697985-37.951396 9.967219-56.562337zM393.592214 682.529465l-124.544226-86.989378 51.188037 118.636177-34.114761 14.722437-78.506282-181.908023 35.727721-15.428526 126.895064 89.350255-52.437913-121.47726 34.114761-14.73415 78.528033 181.918062-36.850434 15.910406z m75.685276-32.672468l-78.506281-181.908023 134.88624-58.228839 13.270105 30.780085-98.164643 42.361936 17.404569 40.322312 91.338009-39.423807 13.226602 30.652922L471.394081 553.827351l21.368366 49.509822 101.626482-43.857772 13.226602 30.652922-138.338041 59.724674z m307.49967-132.706068l-94.928685-120.377972 22.574739 151.586394-39.830393 17.1904-121.92735-163.156534 37.586639-16.240025 81.359078 113.123001-20.67399-139.298454 43.697145-18.856901 86.72334 113.305379-26.923371-139.11775 36.977596-15.962274 34.327257 200.989132-38.962005 16.815604z" p-id="1605" fill="#ffcd2a"></path></svg>