<svg t="1584115852686" class="icon" viewBox="0 0 1024 1024" version="1.1" xmlns="http://www.w3.org/2000/svg" p-id="32996" width="128" height="128"><path d="M512 1024C229.6832 1024 0 794.3168 0 512S229.6832 0 512 0s512 229.6832 512 512-229.6832 512-512 512z m0-921.6c-225.8432 0-409.6 183.7568-409.6 409.6s183.7568 409.6 409.6 409.6 409.6-183.7568 409.6-409.6-183.7568-409.6-409.6-409.6z m-36.1984 650.5984l-153.6-153.6a51.1488 51.1488 0 1 1 72.3968-72.3968L460.8 593.2032V307.2a51.2 51.2 0 1 1 102.4 0v286.0032l66.2016-66.2016a51.1488 51.1488 0 1 1 72.3968 72.3968l-153.6 153.6a51.1488 51.1488 0 0 1-72.3968 0z" fill="#333333" p-id="32997"></path></svg>