<svg t="1582723701972" class="icon" viewBox="0 0 1024 1024" version="1.1" xmlns="http://www.w3.org/2000/svg" p-id="11849" width="48" height="48"><path d="M249.17504 1009.29536c-64.7936 0-123.56608-26.22976-166.05184-68.64384-42.48576-42.4192-68.7616-101.08928-68.7616-165.77536 0-64.74752 26.27584-123.35616 68.7616-165.77536l0.07168 0.07168 0.06656-0.07168c42.48576-42.4192 101.12-68.64384 165.9136-68.64384h208.9472a25.82016 25.82016 0 0 1 25.86112 25.81504v208.60416c0 63.93344-25.72288 121.92768-67.32288 164.20352-0.47616 0.54784-0.95232 1.02912-1.4336 1.57184-42.49088 42.4192-101.1968 68.64384-166.05184 68.64384z" fill="#ffa43d" p-id="11850"></path><path d="M378.61888 904.11008l1.30048-1.2288c32.3584-32.99328 52.27008-78.14144 52.27008-128.00512v-182.71232H249.17504a182.8352 182.8352 0 0 0-129.44896 53.41184v0.06656c-33.11616 33.06496-53.57056 78.75584-53.57056 129.23392s20.4544 96.17408 53.57056 129.23392a182.62016 182.62016 0 0 0 129.44896 53.4784 182.62528 182.62528 0 0 0 129.44384-53.4784zM703.60576 432.81408h71.22432a182.62016 182.62016 0 0 0 129.44896-53.48352l1.30048-1.2288c32.36352-32.99328 52.2752-78.13632 52.2752-128a182.41536 182.41536 0 0 0-53.504-129.30048 183.02464 183.02464 0 0 0-129.51552-53.41184 182.85056 182.85056 0 0 0-129.44384 53.41184v0.07168c-33.11616 33.05984-53.57568 78.75584-53.57568 129.2288v208.60416c0 14.208-11.63264 25.82016-25.92768 25.82016-14.2336 0-25.86112-11.61216-25.86112-25.82016V250.09664c0-64.74752 26.27072-123.35616 68.7616-165.77536l0.06656 0.07168 0.06656-0.07168c42.49088-42.41408 101.12512-68.64384 165.9136-68.64384 64.7936 0 123.42784 26.22976 165.9136 68.64384l0.13824 0.13824c42.48576 42.4192 68.7616 100.95616 68.7616 165.64224 0 63.92832-25.72288 121.92256-67.32288 164.20352-0.48128 0.54784-0.95744 1.024-1.43872 1.56672-42.48576 42.4192-101.18656 68.64384-166.05184 68.64384h-71.2192c-14.30016 0-25.92768-11.61216-25.92768-25.82016-0.01024-14.27456 11.61216-25.8816 25.91744-25.8816zM249.17504 67.38432a182.71744 182.71744 0 0 0-128.21504 52.18816l-1.2288 1.29536c-33.11616 33.05984-53.57056 78.75584-53.57056 129.2288 0 50.47808 20.4544 96.17408 53.57056 129.23392s78.88384 53.48352 129.44896 53.48352h183.01952V250.09664a182.39488 182.39488 0 0 0-53.504-129.30048 183.05536 183.05536 0 0 0-129.52064-53.41184z" fill="#ffcd2a" p-id="11851"></path><path d="M415.08864 84.32128l0.13824 0.13824c42.49088 42.41408 68.7616 100.95104 68.7616 165.63712V458.7008a25.86624 25.86624 0 0 1-25.86112 25.82016h-208.9472c-64.7936 0-123.56608-26.22976-166.05184-68.64384C40.63744 373.4528 14.3616 314.7776 14.3616 250.09664c0-64.74752 26.27584-123.35616 68.7616-165.77536 0.54784-0.47616 1.02912-0.95232 1.57184-1.4336C127.04768 41.35936 185.13408 15.67744 249.17504 15.67744c64.78848 0 123.42784 26.22976 165.9136 68.64384zM774.82496 957.58848a182.6048 182.6048 0 0 0 129.44384-53.4784h0.07168c33.04448-33.05984 53.504-78.75584 53.504-129.23392a182.41024 182.41024 0 0 0-53.504-129.30048 183.00416 183.00416 0 0 0-129.51552-53.41184h-183.01952v182.71232c0 50.47808 20.45952 96.17408 53.57568 129.23392a182.6048 182.6048 0 0 0 129.44384 53.4784z" fill="#ffa500" p-id="11852"></path><path d="M608.77824 940.65152c-42.49088-42.41408-68.7616-101.08928-68.7616-165.77536v-208.59904c0-14.27456 11.62752-25.82016 25.86112-25.82016h208.9472c64.7936 0 123.42784 26.22976 165.9136 68.64384l0.13824 0.13824c42.49088 42.4192 68.7616 100.95616 68.7616 165.63712 0 64.68608-26.27072 123.22304-68.7616 165.63712l-0.06656 0.07168 0.06656 0.06656c-42.48576 42.4192-101.18656 68.64384-166.05184 68.64384-64.78848 0-123.56096-26.22464-166.04672-68.64384z" fill="#dc341a" p-id="11853"></path></svg>