<svg t="1582730963120" class="icon" viewBox="0 0 1024 1024" version="1.1" xmlns="http://www.w3.org/2000/svg" p-id="21702" width="48" height="48"><path d="M597.3 195.27L339.16 474.92l21.52 430.24h473.25V388.87L597.3 195.27z" fill="#EF813F" p-id="21703"></path><path d="M769.4 415.8L510.54 182 253.12 412.3v471.34H769.4z m86 77.73v476.16H167.07v-480.4l-57.36 51.32-57.38-64.12L510.81 66.24l459.52 415.12-57.68 63.85z m-172.05 88.95a172.09 172.09 0 1 1-172.09-172.09 172.09 172.09 0 0 1 172.09 172.09z m-86 0a86 86 0 1 0-86 86 86.07 86.07 0 0 0 85.95-86z" fill="#333333" p-id="21704"></path></svg>