<svg t="1584976154895" class="icon" viewBox="0 0 1821 1024" version="1.1" xmlns="http://www.w3.org/2000/svg" p-id="26170" width="48" height="48"><path d="M1242.358667 846.616c-183.186667 183.186667-480.190667 183.186667-663.377334 0 98.669333 98.669333 387.396 90.392 570.582667-92.794667s197.432-465.945333 92.794667-570.582666c183.186667 183.186667 183.186667 480.190667 0 663.377333z" fill="#F5B200" p-id="26171"></path><path d="M910.670667 1014.833333c-277.261333 0-502.837333-225.570667-502.837334-502.833333 0-114.654667 39.621333-226.824 111.556-315.845333 11.726667-14.496 32.972-16.761333 47.474667-5.038667 14.496 11.718667 16.753333 32.972 5.034667 47.470667-62.268 77.048-96.557333 174.149333-96.557334 273.413333 0 240.038667 195.290667 435.324 435.328 435.324s435.32-195.286667 435.32-435.324S1150.709333 76.676 910.670667 76.676c-63.124 0-123.982667 13.201333-180.893334 39.238667-16.952 7.770667-36.985333 0.301333-44.738666-16.650667-7.754667-16.950667-0.297333-36.98 16.654666-44.734667C767.48 24.429333 837.790667 9.168 910.672 9.168c277.261333 0 502.829333 225.570667 502.829333 502.833333S1187.932 1014.833333 910.670667 1014.833333z" fill="#333333" p-id="26172"></path><path d="M615.006667 181.585333c-9.798667 0-19.522667-4.248-26.197334-12.444-11.768-14.458667-9.584-35.72 4.870667-47.488a489.970667 489.970667 0 0 1 13.457333-10.573333c14.858667-11.257333 36.029333-8.344 47.293334 6.514667 11.257333 14.858667 8.34 36.033333-6.518667 47.289333a426.242667 426.242667 0 0 0-11.610667 9.122667 33.626667 33.626667 0 0 1-21.294666 7.578666z" fill="#333333" p-id="26173"></path><path d="M1076.474667 434.830667l77.16 77.16-250.616 250.613333-77.16-77.16z" fill="#FFD524" p-id="26174"></path><path d="M903.024 796.373333a33.754667 33.754667 0 0 1-23.865333-9.885333L628.538667 535.869333c-13.185333-13.185333-13.185333-34.553333 0-47.738666l250.618666-250.618667c13.169333-13.177333 34.561333-13.177333 47.730667 0 13.185333 13.185333 13.185333 34.553333 0 47.738667L700.142667 512l202.88 202.884L1105.896 512 955.501333 361.597333c-13.185333-13.185333-13.185333-34.557333 0-47.738666 13.169333-13.177333 34.545333-13.177333 47.730667 0l174.268 174.272c13.185333 13.185333 13.185333 34.553333 0 47.738666L926.889333 786.489333a33.758667 33.758667 0 0 1-23.865333 9.884z" fill="#333333" p-id="26175"></path></svg>