<svg t="1584504478002" class="icon" viewBox="0 0 1025 1024" version="1.1" xmlns="http://www.w3.org/2000/svg" p-id="2464" width="64" height="64"><path d="M499.533845 200.761867L74.385103 633.955282v300.090655A89.954063 89.954063 0 0 0 164.339166 1024H415.674231v-227.444826A65.088712 65.088712 0 0 1 480.762943 731.466461h65.088713A65.088712 65.088712 0 0 1 610.69659 796.555174V1024h251.335065A89.954063 89.954063 0 0 0 951.985718 934.045937V633.955282L526.836976 200.761867a19.502236 19.502236 0 0 0-27.303131 0z" fill="#bfbfbf" p-id="2465"></path><path d="M1018.049542 495.001851L551.458548 17.928405A61.188265 61.188265 0 0 0 464.429821 18.415961L8.077501 495.245629a24.377795 24.377795 0 1 0 35.104024 33.641357L499.533845 52.544874a12.432675 12.432675 0 0 1 17.308235 0L983.433074 529.130764a24.377795 24.377795 0 1 0 34.860246-34.128913z" fill="#bfbfbf" p-id="2466"></path></svg>