<svg t="1584113910807" class="icon" viewBox="0 0 1024 1024" version="1.1" xmlns="http://www.w3.org/2000/svg" p-id="17023" width="64" height="64"><path d="M728.158655 0 760.599664 0C781.725042 10.627227 807.454118 19.189244 816.704538 43.197311 821.566387 51.845378 826.514286 60.622521 830.386555 69.786891L830.386555 102.529076C815.844034 132.388571 795.321008 158.978151 771.700168 182.168739 661.082353 291.538824 551.023866 401.468235 441.567731 512 553.089076 624.769076 665.6 736.548571 777.938824 848.457143 798.849076 870.098824 821.695462 892.256807 830.386555 922.030252L830.386555 954.256134C819.716303 975.338487 811.197311 1001.067563 787.189244 1010.317983 778.455126 1015.093782 769.807059 1020.127731 760.599664 1024L728.02958 1024C701.483025 1011.78084 677.087731 995.044034 656.865882 973.87563 504.083361 819.11395 349.14958 666.546555 196.281008 511.91395 347.127395 359.647731 499.78084 209.102521 650.412101 56.621176 673.903866 34.979496 696.836303 9.766723 728.158655 0Z" p-id="17024" fill="#333333"></path></svg>