<svg t="1583153954671" class="icon" viewBox="0 0 1024 1024" version="1.1" xmlns="http://www.w3.org/2000/svg" p-id="1574" width="48" height="48"><path d="M912.564706 731.858824v-186.729412c0-120.470588-93.364706-228.894118-213.835294-252.988236V240.941176s0-69.270588-93.364706-69.270588S508.988235 240.941176 508.988235 240.941176v51.2c-120.470588 24.094118-213.835294 129.505882-213.835294 252.988236v186.729412c-120.470588 0-123.482353 162.635294 0 162.635294h213.835294s0 69.270588 93.364706 69.270588c96.376471 0 93.364706-69.270588 93.364706-69.270588h213.835294c120.470588 0 120.470588-162.635294 3.011765-162.635294z" fill="#337b62" fill-opacity=".6" p-id="1575"></path><path d="M894.494118 683.670588v-228.894117c0-144.564706-114.447059-277.082353-259.011765-307.2V84.329412S638.494118 0 521.035294 0s-114.447059 84.329412-114.447059 84.329412v63.247059c-144.564706 27.105882-259.011765 156.611765-259.011764 307.2v228.894117c-147.576471 0-150.588235 198.776471 0 198.776471h259.011764s-3.011765 84.329412 114.447059 84.329412c114.447059 0 114.447059-84.329412 114.447059-84.329412h262.023529c138.541176-3.011765 141.552941-198.776471-3.011764-198.776471zM463.811765 84.329412s0-27.105882 57.223529-27.105883 57.223529 27.105882 57.22353 27.105883v57.223529h-114.447059V84.329412z m54.211764 825.223529c-57.223529 0-57.223529-27.105882-57.223529-27.105882h114.447059s3.011765 27.105882-57.22353 27.105882z m376.470589-84.329412H147.576471c-66.258824 0-63.247059-84.329412 0-84.329411h57.223529v-283.105883c0-114.447059 87.341176-256 259.011765-256h114.447059c168.658824 0 259.011765 147.576471 259.011764 256v283.105883h57.22353c57.223529 0 57.223529 84.329412 0 84.329411z" fill="#333333" p-id="1576"></path></svg>