<svg t="1584795496909" class="icon" viewBox="0 0 1024 1024" version="1.1" xmlns="http://www.w3.org/2000/svg" p-id="4391" width="480" height="480"><path d="M512 395.915636m-324.654545 0a324.654545 324.654545 0 1 0 649.30909 0 324.654545 324.654545 0 1 0-649.30909 0Z" fill="#cdcdcd" p-id="4392" data-spm-anchor-id="a313x.7781069.0.i22" class="selected"></path><path d="M514.606545 0.279273a395.636364 395.636364 0 1 0 0 791.272727 395.636364 395.636364 0 0 0 0-791.272727z m0 93.090909a302.545455 302.545455 0 1 1 0 605.090909 302.545455 302.545455 0 0 1 0-605.090909z" fill="#333333" p-id="4393"></path><path d="M296.075636 379.857455a85.457455 76.8 90 1 0 153.6 0 85.457455 76.8 90 1 0-153.6 0Z" fill="#333333" p-id="4394"></path><path d="M579.537455 379.857455a85.457455 76.8 90 1 0 153.6 0 85.457455 76.8 90 1 0-153.6 0Z" fill="#333333" p-id="4395"></path><path d="M149.550545 785.873455a46.545455 46.545455 0 0 1 65.722182 3.723636c7.307636 8.238545 14.987636 16.151273 22.900364 23.738182 75.170909 72.052364 173.056 112.593455 277.038545 112.593454 114.688 0 221.742545-49.338182 298.821819-135.074909a46.545455 46.545455 0 0 1 69.21309 62.277818c-94.440727 105.006545-226.536727 165.888-368.034909 165.888-128.325818 0-249.157818-50.082909-341.410909-138.426181a515.258182 515.258182 0 0 1-27.973818-28.997819 46.545455 46.545455 0 0 1 3.723636-65.722181z" fill="#333333" p-id="4396"></path></svg>