<svg t="1584372328570" class="icon" viewBox="0 0 1024 1024" version="1.1" xmlns="http://www.w3.org/2000/svg" p-id="28614" width="128" height="128"><path d="M509.44 991.232a409.6 409.6 0 1 1 174.336-780.8 23.552 23.552 0 0 1-19.968 42.752 362.24 362.24 0 1 0 173.824 173.568A378.112 378.112 0 0 0 814.08 384a23.808 23.808 0 0 1 6.912-32.768 23.552 23.552 0 0 1 32.512 7.168 396.288 396.288 0 0 1 25.6 47.872A409.6 409.6 0 0 1 509.44 991.232z" fill="#231815" p-id="28615"></path><path d="M789.504 338.944a23.552 23.552 0 0 1-17.152-7.424 384 384 0 0 0-40.192-36.352 23.552 23.552 0 0 1 28.928-37.376 406.272 406.272 0 0 1 45.312 41.216 23.552 23.552 0 0 1 0 33.28 23.808 23.808 0 0 1-16.896 6.656zM494.848 180.992a23.552 23.552 0 0 1-23.552-23.552 66.048 66.048 0 0 0-131.84 0 23.552 23.552 0 0 1-47.104 0 113.152 113.152 0 0 1 226.048 0 23.552 23.552 0 0 1-23.552 23.552z" fill="#231815" p-id="28616"></path><path d="M494.848 237.568a23.552 23.552 0 0 1-23.552-23.552V157.44a23.552 23.552 0 1 1 47.104 0v56.576a23.552 23.552 0 0 1-23.552 23.552z" fill="#231815" p-id="28617"></path><path d="M673.792 180.992a23.552 23.552 0 0 1-23.552-23.552 66.048 66.048 0 0 0-131.84 0 23.552 23.552 0 1 1-47.104 0 113.152 113.152 0 0 1 226.048 0 23.552 23.552 0 0 1-23.552 23.552z" fill="#231815" p-id="28618"></path><path d="M494.848 237.568a23.552 23.552 0 0 1-23.552-23.552V157.44a23.552 23.552 0 1 1 47.104 0v56.576a23.552 23.552 0 0 1-23.552 23.552z" fill="#231815" p-id="28619"></path><path d="M509.44 581.376m-364.544 0a364.544 364.544 0 1 0 729.088 0 364.544 364.544 0 1 0-729.088 0Z" fill="#ea9518" p-id="28620" data-spm-anchor-id="a313x.7781069.0.i44" class=""></path><path d="M486.144 570.624m-341.504 0a341.504 341.504 0 1 0 683.008 0 341.504 341.504 0 1 0-683.008 0Z" fill="#FFFFFF" p-id="28621" data-spm-anchor-id="a313x.7781069.0.i48" class=""></path><path d="M516.096 605.952a6.4 6.4 0 0 1-6.4-5.376 6.144 6.144 0 0 1 5.12-7.424c7.424-1.536 19.968-7.68 22.272-13.824a5.632 5.632 0 0 0-1.536-6.144c-4.608-5.632-16.896 0-23.552 4.864a6.912 6.912 0 0 1-9.216-1.536 6.656 6.656 0 0 1 1.536-9.216c13.568-9.984 31.744-14.592 41.472-2.304a17.92 17.92 0 0 1 3.584 18.944 46.08 46.08 0 0 1-32.256 22.016z" fill="#231815" p-id="28622"></path><path d="M529.92 641.28a45.824 45.824 0 0 1-25.6-9.472 6.656 6.656 0 1 1 7.68-10.752c6.656 4.864 18.944 10.496 23.552 4.864s2.048-4.864 1.536-6.144c-2.304-6.4-14.848-12.544-22.272-13.824a6.4 6.4 0 0 1-5.12-7.68 6.144 6.144 0 0 1 7.424-5.12 44.544 44.544 0 0 1 32.256 22.016 18.176 18.176 0 0 1-3.584 18.944 19.456 19.456 0 0 1-15.872 7.168z" fill="#231815" p-id="28623"></path><path d="M684.544 588.8c68.352-5.632 63.744 67.328 19.712 82.944a304.384 304.384 0 0 1-98.304 6.656 284.672 284.672 0 0 1-6.4-98.304c9.984-46.336 81.664-60.672 84.992 8.704z" fill="#e0620d" p-id="28624" data-spm-anchor-id="a313x.7781069.0.i45" class="selected"></path><path d="M588.8 508.16a12.032 12.032 0 0 1-7.936-3.072 11.52 11.52 0 0 1 0-15.616 46.592 46.592 0 0 1 67.328 0 11.52 11.52 0 0 1 0 15.616 11.008 11.008 0 0 1-15.616 0 25.6 25.6 0 0 0-36.096 0 10.752 10.752 0 0 1-7.68 3.072z" fill="#231815" p-id="28625"></path><path d="M410.624 505.6m-30.72 0a30.72 30.72 0 1 0 61.44 0 30.72 30.72 0 1 0-61.44 0Z" fill="#231815" p-id="28626"></path></svg>