<svg t="1584504614307" class="icon" viewBox="0 0 1083 1024" version="1.1" xmlns="http://www.w3.org/2000/svg" p-id="6343" width="64" height="64"><path d="M768.710103 582.943072a48.884115 48.884115 0 0 0 97.76823 0 48.884115 48.884115 0 1 0-97.76823 0z" fill="#bfbfbf" p-id="6344"></path><path d="M947.198228 0H136.6996A138.403151 138.403151 0 0 0 0.007394 139.808569V884.191431c0 76.809166 61.105144 139.808569 136.692206 139.808569h810.498628a138.464256 138.464256 0 0 0 136.692207-139.808569V139.136412A137.792099 137.792099 0 0 0 947.198228 0zM202.815366 226.455663H267.647924a34.829932 34.829932 0 0 1 0 69.598759H202.815366a34.829932 34.829932 0 0 1 0-69.598759z m305.525719 496.907029a58.233202 58.233202 0 0 1-16.681704 40.696026 55.605681 55.605681 0 0 1-39.779449 17.048335H225.240954a55.605681 55.605681 0 0 1-39.779449-17.048335 58.233202 58.233202 0 0 1-16.681704-40.573815v-232.199547a58.844253 58.844253 0 0 1 16.070653-40.023869 53.528106 53.528106 0 0 1 39.351712-16.742809h227.616661a55.666786 55.666786 0 0 1 39.779449 17.10944 58.110992 58.110992 0 0 1 16.681704 40.696026z m372.191431-13.137605h-203.480129a34.829932 34.829932 0 0 1 0-69.598759h203.419024a34.646617 34.646617 0 0 1 33.97446 34.829932 33.791145 33.791145 0 0 1-33.97446 34.768827z m0-208.063015h-203.480129a34.829932 34.829932 0 0 1 0-69.598759h203.419024a34.646617 34.646617 0 0 1 34.21888 34.768827 34.218881 34.218881 0 0 1-34.21888 34.829932z m0-206.779807H389.552686a34.829932 34.829932 0 0 1 0-69.598759h491.529776a34.829932 34.829932 0 0 1-0.611051 69.598759z" fill="#bfbfbf" p-id="6345"></path></svg>