<svg t="1584195582755" class="icon" viewBox="0 0 1024 1024" version="1.1" xmlns="http://www.w3.org/2000/svg" p-id="2985" width="64" height="64"><path d="M779.815385 512l-181.169231 181.169231c-3.938462 3.938462-11.815385 7.876923-19.692308 7.876923s-15.753846-3.938462-19.692308-7.876923c-11.815385-11.815385-11.815385-31.507692 0-43.323077l129.969231-129.969231H263.876923c-15.753846 3.938462-27.569231-11.815385-27.569231-27.569231 0-15.753846 11.815385-27.569231 27.569231-27.56923h425.353846l-133.907692-133.907693c-11.815385-11.815385-11.815385-31.507692 0-39.384615s31.507692-11.815385 43.323077 0l181.169231 181.169231c11.815385 11.815385 11.815385 31.507692 0 39.384615z" fill="#df5d39" p-id="2986"></path><path d="M512 1016.123077C236.307692 1016.123077 7.876923 787.692308 7.876923 512S236.307692 7.876923 512 7.876923 1016.123077 236.307692 1016.123077 512 787.692308 1016.123077 512 1016.123077z m0-945.230769C267.815385 70.892308 70.892308 267.815385 70.892308 512s196.923077 441.107692 441.107692 441.107692 441.107692-196.923077 441.107692-441.107692S756.184615 70.892308 512 70.892308z" fill="#515151" p-id="2987"></path></svg>