<svg t="1582040937729" class="icon" viewBox="0 0 1165 1024" version="1.1" xmlns="http://www.w3.org/2000/svg" p-id="9124" width="48" height="48"><path d="M1051.895172 562.21131c14.477241-23.622621 44.491034-31.638069 67.301518-17.937655 11.29931 6.073379 19.597241 16.595862 22.987034 29.236966 3.425103 12.641103 1.659586 26.341517-4.872827 38.029241-14.618483 23.657931-44.667586 31.673379-67.584 18.008276a47.209931 47.209931 0 0 1-22.739863-29.378207 51.305931 51.305931 0 0 1 4.943449-37.958621" fill="#FF9300" p-id="9125"></path><path d="M632.620138 1009.69931L34.745379 665.988414c-19.844414-11.369931-28.742621-35.310345-21.292138-57.061517L153.847172 199.362207C166.135172 163.486897 213.062621 155.153655 236.57931 184.708414L317.899034 287.073103c12.358621 15.571862 33.121103 21.786483 52.082759 15.571863l287.426207-93.960828a47.563034 47.563034 0 0 1 61.44 35.451586l62.322759 295.759448c4.13131 19.597241 20.020966 34.498207 39.830069 37.323035l128.211862 18.326069c37.640828 5.367172 54.024828 50.493793 28.848551 79.165793l-285.660689 324.961103a47.880828 47.880828 0 0 1-59.780414 10.028138" fill="#FFD100" p-id="9126"></path><path d="M721.213793 951.26069c-14.971586 16.948966-39.90069 21.044966-59.603862 9.710344L63.735172 617.260138a47.739586 47.739586 0 0 1-21.504-56.743724L171.008 182.448552a46.715586 46.715586 0 0 0-21.609931 26.094345L11.158069 614.329379c-7.344552 21.53931 1.694897 45.338483 21.504 56.743724l597.874759 343.710897c19.703172 11.29931 44.632276 7.273931 59.603862-9.710345l283.471448-321.218207c8.439172-9.533793 12.111448-20.939034 11.899586-32.061793l-264.297931 299.467035z" fill="#FFBC00" p-id="9127"></path><path d="M115.252966 309.389241c14.653793-1.094621 29.66069 4.484414 39.936 17.725793l80.507586 103.812414c12.217379 15.819034 33.050483 21.892414 52.25931 15.218759l291.416276-100.811035a46.503724 46.503724 0 0 1 61.44 35.451587l58.368 302.609655c3.884138 20.056276 19.667862 35.098483 39.582896 37.711448l129.094621 16.843035c16.595862 2.118621 28.954483 12.182069 35.451586 25.317517l73.198345-84.391724c25.847172-29.837241 9.992828-75.917241-27.895172-80.82538l-129.059311-16.843034a46.468414 46.468414 0 0 1-39.618206-37.711448l-58.368-302.609656a46.503724 46.503724 0 0 0-61.44-35.451586l-291.380966 100.846345a46.468414 46.468414 0 0 1-52.294621-15.218759l-80.507586-103.812413c-23.234207-30.013793-70.69131-20.762483-83.685517 16.278069L115.288276 309.389241z" fill="#FFE000" p-id="9128"></path><path d="M708.855172 72.73931c15.289379-28.248276 42.831448-46.397793 69.632-45.938758 26.835862 0.423724 47.563034 19.42069 52.365242 47.951448 4.802207 28.530759-7.238621 60.910345-30.437517 81.814069-23.234207 20.903724-52.965517 26.200276-75.140414 13.312-29.766621-16.595862-37.075862-59.956966-16.419311-97.138759M154.306207 38.382345a49.293241 49.293241 0 1 1 18.961655 65.147586 48.16331 48.16331 0 0 1-18.996965-65.147586" fill="#FF9300" p-id="9129"></path></svg>