<svg t="1584953269786" class="icon" viewBox="0 0 1024 1024" version="1.1" xmlns="http://www.w3.org/2000/svg" p-id="23860" width="48" height="48"><path d="M480 544m-416 0a416 416 0 1 0 832 0 416 416 0 1 0-832 0Z" fill="#FFFFFF" p-id="23861"></path><path d="M721.856 303.104a48.448 48.448 0 0 0-68.416 0L511.488 445.056l-136.192-136.32a46.976 46.976 0 1 0-66.496 66.496l136.32 136.256-141.952 141.952a48.384 48.384 0 0 0 68.416 68.352l141.888-141.888 137.088 136.96a46.912 46.912 0 1 0 66.432-66.368L579.968 513.472l141.888-141.952a48.448 48.448 0 0 0 0-68.416M512 1024A512 512 0 1 1 512 0a512 512 0 0 1 0 1024" fill="#707070" p-id="23862" data-spm-anchor-id="a313x.7781069.0.i48" class="selected"></path></svg>