<svg t="1584195567307" class="icon" viewBox="0 0 1024 1024" version="1.1" xmlns="http://www.w3.org/2000/svg" p-id="2705" width="64" height="64"><path d="M244.184615 512l181.169231-181.169231c3.938462-3.938462 11.815385-7.876923 19.692308-7.876923s15.753846 3.938462 19.692308 7.876923c11.815385 11.815385 11.815385 31.507692 0 43.32307701l-129.969231 129.96923099L760.123077 504.123077c15.753846-3.938462 27.569231 11.815385 27.569231 27.569231 0 15.75384601-11.815385 27.569231-27.569231 27.56922999l-425.353846 0 133.907692 133.90769301c11.815385 11.815385 11.815385 31.507692 0 39.384615s-31.507692 11.815385-43.323077 0l-181.169231-181.169231c-11.815385-11.815385-11.815385-31.507692 0-39.384615z" fill="#df5d39" p-id="2706"></path><path d="M512 7.876923C787.692308 7.876923 1016.123077 236.307692 1016.123077 512S787.692308 1016.123077 512 1016.123077 7.876923 787.692308 7.876923 512 236.307692 7.876923 512 7.876923z m0 945.230769C756.184615 953.107692 953.107692 756.184615 953.107692 512s-196.923077-441.107692-441.107692-441.107692-441.107692 196.923077-441.107692 441.107692S267.815385 953.107692 512 953.107692z" fill="#515151" p-id="2707"></path></svg>