<svg t="1584504907021" class="icon" viewBox="0 0 1024 1024" version="1.1" xmlns="http://www.w3.org/2000/svg" p-id="10109" width="64" height="64"><path d="M101.76 91.306667m105.386667 0l178.56 0q105.386667 0 105.386666 105.386666l0 178.56q0 105.386667-105.386666 105.386667l-178.56 0q-105.386667 0-105.386667-105.386667l0-178.56q0-105.386667 105.386667-105.386666Z" fill="#0c54b5" p-id="10110"></path><path d="M554.666667 91.306667m105.386666 0l178.56 0q105.386667 0 105.386667 105.386666l0 178.56q0 105.386667-105.386667 105.386667l-178.56 0q-105.386667 0-105.386666-105.386667l0-178.56q0-105.386667 105.386666-105.386666Z" fill="#0c54b5" p-id="10111"></path><path d="M101.76 543.36m105.386667 0l178.56 0q105.386667 0 105.386666 105.386667l0 178.56q0 105.386667-105.386666 105.386666l-178.56 0q-105.386667 0-105.386667-105.386666l0-178.56q0-105.386667 105.386667-105.386667Z" fill="#0c54b5" p-id="10112"></path><path d="M554.666667 543.36m105.386666 0l178.56 0q105.386667 0 105.386667 105.386667l0 178.56q0 105.386667-105.386667 105.386666l-178.56 0q-105.386667 0-105.386666-105.386666l0-178.56q0-105.386667 105.386666-105.386667Z" fill="#0c54b5" p-id="10113"></path></svg>