<svg t="1582726188881" class="icon" viewBox="0 0 1024 1024" version="1.1" xmlns="http://www.w3.org/2000/svg" p-id="1447" width="48" height="48"><path d="M674.816 216.064H437.76c-18.944 0-35.328 15.36-35.328 32.768V877.056c0 17.408 16.384 32.768 35.328 32.768h237.568c18.944 0 35.328-15.36 35.328-32.768V248.832c0-17.408-16.896-32.768-35.84-32.768zM341.504 451.584h-184.32c-18.944 0-35.84 15.36-35.84 32.768V876.032c0 17.408 16.896 32.768 35.84 32.768h185.344c18.944 0 35.84-15.36 35.84-32.768V484.352c-0.512-17.408-17.408-32.768-36.864-32.768zM963.584 543.232h-193.536c-18.432 0-34.304 15.36-34.304 32.768V877.056c0 17.408 16.384 32.768 34.304 32.768h193.536c18.432 0 34.304-15.36 34.304-32.768V576c0.512-17.408-15.36-32.768-34.304-32.768z" fill="#F4CE4A" p-id="1448"></path><path d="M902.144 465.408h-209.408v-256c0-39.424-30.208-69.632-69.632-69.632H390.144c-39.424 0-69.632 30.208-69.632 69.632v162.816H111.104c-39.424 0-69.632 30.208-69.632 69.632V814.08c0 39.424 30.208 69.632 69.632 69.632h791.04c39.424 0 69.632-30.208 69.632-69.632v-279.04c0.512-39.424-30.208-69.632-69.632-69.632zM322.048 851.968H108.544c-18.432 0-34.816-15.36-34.816-32.768V437.248c0-17.408 16.384-32.768 34.816-32.768h213.504v447.488zM660.48 210.432v641.536H353.28V204.8c0-17.408 16.384-32.768 34.816-32.768h237.568c18.432 0 34.816 15.36 34.816 32.768v5.632z m280.576 325.632v282.624c0 17.408-16.384 32.768-34.816 32.768h-214.016V497.664H906.24c18.432 0 34.816 15.36 34.816 32.768v5.632z" fill="#ffa43d" p-id="1449"></path><path d="M513.536 415.744l23.04 46.592 51.2 7.168c4.608 0 7.168 7.168 4.608 11.776l-39.424 39.424 9.216 53.76c0 4.608-4.608 9.216-9.216 7.168l-46.592-23.04-44.032 23.04c-4.608 2.56-11.776-2.56-9.216-7.168l9.216-53.76-37.376-37.376c-4.608-4.608-2.56-11.776 4.608-11.776l51.2-7.168 23.04-46.592c2.048-5.632 7.68-6.656 9.728-2.048z" fill="#dc341a" p-id="1450"></path></svg>