<svg t="1584194805676" class="icon" viewBox="0 0 1024 1024" version="1.1" xmlns="http://www.w3.org/2000/svg" p-id="31897" width="48" height="48"><path d="M973.306931 425.821782c-30.415842 0-60.831683 20.277228-60.831683 50.693069v395.405941c0 20.277228 0 30.415842-10.138614 40.554456-10.138614 0-20.277228 10.138614-40.554456 10.138613h-709.70297c-30.415842 0-50.693069-20.277228-50.693069-50.693069V212.910891 202.772277c0-30.415842 20.277228-40.554455 50.693069-40.554455h101.386139c30.415842 0 50.693069-20.277228 50.693069-50.69307S294.019802 50.693069 263.60396 50.693069h-101.386138C121.663366 50.693069 81.108911 70.970297 50.693069 101.386139c-30.415842 30.415842-50.693069 70.970297-50.693069 111.524752v659.009901c0 40.554455 20.277228 81.108911 50.693069 111.524753 30.415842 30.415842 70.970297 40.554455 111.524753 40.554455h709.70297c40.554455 0 81.108911-20.277228 111.524753-40.554455 30.415842-30.415842 40.554455-70.970297 40.554455-111.524753V476.514851c0-30.415842-20.277228-50.693069-50.693069-50.693069z" fill="#ffffff" p-id="31898"></path><path d="M364.990099 811.089109h20.277228c30.415842 0 50.693069-20.277228 50.693069-50.693069V506.930693v-10.138614c0-40.554455 20.277228-81.108911 50.693069-101.386138 30.415842-30.415842 70.970297-40.554455 111.524753-30.415842h364.990099c20.277228 0 40.554455-10.138614 50.693069-30.415842 10.138614-20.277228 10.138614-40.554455-10.138614-60.831683L811.089109 20.277228c-20.277228-20.277228-60.831683-20.277228-81.108911 0-20.277228 20.277228-20.277228 50.693069 0 70.970297l121.663366 152.079208H608.316832c-70.970297 0-152.079208 30.415842-202.772278 81.108911-60.831683 40.554455-81.108911 111.524752-81.10891 182.495049v263.60396c0 20.277228 20.277228 40.554455 40.554455 40.554456z" fill="#ffffff" p-id="31899"></path></svg>