<svg t="1583155875513" class="icon" viewBox="0 0 1024 1024" version="1.1" xmlns="http://www.w3.org/2000/svg" p-id="1728" width="48" height="48"><path d="M747.314 935.931c-8.328 0-16.52-1.534-24.349-4.558L366.977 793.859c-34.776-13.433-52.14-52.654-38.707-87.431l189.487-490.534c9.997-25.878 35.347-43.265 63.083-43.265 8.327 0 16.52 1.534 24.349 4.558L961.178 314.7c34.776 13.433 52.14 52.655 38.706 87.431L810.397 892.665c-9.997 25.878-35.348 43.266-63.083 43.266z" fill="#FFCB7F" p-id="1729"></path><path d="M580.84 180.14a59.935 59.935 0 0 1 21.642 4.054L958.47 321.707c30.962 11.96 46.365 46.756 34.405 77.717L803.388 889.958c-9.209 23.841-31.962 38.459-56.074 38.459a59.935 59.935 0 0 1-21.642-4.054L369.684 786.851c-30.962-11.96-46.366-46.756-34.405-77.717l189.487-490.535c9.209-23.841 31.961-38.458 56.074-38.459m0.437-15.024v15.025-15.025c-15.652 0.001-29.752 4.445-42.237 12.851-12.792 8.613-22.608 20.792-28.182 35.218L321.318 703.72c-7.23 18.718-6.766 39.132 1.357 57.479 8.123 18.349 22.891 32.435 41.61 39.667l355.98 137.514c8.696 3.359 17.796 5.063 27.052 5.063 15.002 0 29.53-4.444 42.016-12.851 12.792-8.613 22.499-20.792 28.072-35.219l189.487-490.535c14.926-38.641-4.367-82.22-43.008-97.146L608.113 170.178c-8.696-3.359-18.408-5.062-26.836-5.062z" fill="#FFFFFF" stroke="#FFFFFF" stroke-width="45" p-id="1730"></path><path d="M810.265 270.314l89.692 34.644L667.19 907.581l-89.692-34.645z" fill="#F5A816" p-id="1731"></path><path d="M825.29 270.315l89.692 34.644-232.767 602.622-89.693-34.644z" fill="#F5A816" p-id="1732"></path><path d="M830.502 733.072V272.409l-228.194-88.215c-30.962-11.96-65.67 3.443-77.629 34.405L335.234 709.134c-11.96 30.962 3.465 65.757 34.427 77.717l15.907 6.099c1.18 0.069 2.361 0.138 3.558 0.138h381.625c33.193 0 59.751-26.825 59.751-60.016z" fill="#FFA726" p-id="1733"></path><path d="M574.203 257.024s48.263 18.644 54.86 21.191c6.597 2.549 31.565 15.386 21.036 42.643-6.505 16.84-21.438 22.443-31.036 20.432 7.592-15.522 7.774-38.196-13.859-46.753-23.018-9.103-53.474-20.657-53.474-20.657l22.473-16.856z" fill="#FFFFFF" p-id="1734"></path><path d="M588.594 293.109s-10.566 31.224 9.798 43.022c23.084 13.374 35.814 25.872 26.914 44.78-7.137 15.163-21.308 24.689-28.426 21.939 0 0 12.201-29.004-14.767-44.41-33.213-18.972-25.683-36.254-23.349-42.338 5.602-14.595 16.013-22.344 29.83-22.993z" fill="#FFFFFF" p-id="1735"></path><path d="M632.114 421.132l-55.208-21.326c-4.167-1.61-22.472-10.518-10.874-46.739 0 0-22.758 3.132-29.665 21.013s3.365 40.356 11.234 43.396l60.878 23.516 23.635-19.86zM399.266 751.966c-2.019 5.228-7.895 7.828-13.122 5.809l-0.69-0.266c-5.228-2.019-7.828-7.895-5.809-13.122l79.31-205.313c2.019-5.228 7.895-7.828 13.122-5.809l0.69 0.266c5.228 2.019 7.828 7.895 5.809 13.122l-79.31 205.313zM438.509 767.124c-2.019 5.228-7.895 7.828-13.122 5.809l-0.69-0.266c-5.228-2.019-7.828-7.895-5.809-13.122l79.31-205.313c2.019-5.228 7.895-7.828 13.122-5.809l0.69 0.266c5.228 2.019 7.828 7.895 5.809 13.122l-79.31 205.313zM480.554 783.366c-2.019 5.228-7.895 7.828-13.122 5.809l-0.69-0.266c-5.228-2.019-7.828-7.895-5.809-13.122l79.31-205.313c2.019-5.228 7.895-7.828 13.122-5.809l0.69 0.266c5.228 2.019 7.828 7.895 5.809 13.122l-79.31 205.313z" fill="#FFFFFF" p-id="1736"></path><path d="M811.239 718.254c0 37.339-30.271 67.61-67.611 67.61H362.34c-37.34 0-67.611-30.271-67.611-67.61V192.486c0-37.339 30.271-67.61 67.611-67.61h381.288c37.34 0 67.611 30.271 67.611 67.61v525.768z" fill="#FFCB7F" p-id="1737"></path><path d="M743.707 132.1c33.191 0 60.308 26.895 60.308 60.086v525.861c0 33.192-27.115 60.593-60.308 60.593H362.082c-33.191 0-60.129-27.401-60.129-60.593V192.186c0-33.191 26.938-60.086 60.129-60.086h381.733m-0.108-14.448H362.082c-41.423 0-74.577 33.111-74.577 74.534v525.861c0 41.423 33.154 75.041 74.577 75.041h381.625c41.423 0 74.756-33.618 74.756-75.041V192.186c-0.001-41.423-33.333-74.534-74.756-74.534z" fill="#FFFFFF" p-id="1738"></path><path d="M804.015 671.573L618.433 186.065c-11.845-31.006-46.651-46.539-77.656-34.694l-238.825 91.212v463.445c0 33.191 26.938 60.573 60.129 60.573h379.801l29.417-11.475c8.23-3.145 15.434-8.053 21.261-13.927 7.112-9.874 11.453-22.074 11.453-35.172v-34.454z" fill="#F5A816" p-id="1739"></path><path d="M600.541 132.1h96.319v646.54h-96.319z" fill="#F5A816" p-id="1740"></path><path d="M388.373 238.691s1.395 32.934 24.642 36.601c26.353 4.157 42.731 11.23 41.241 32.074-1.194 16.716-10.98 30.708-18.611 30.708 0 0 0.931-31.453-29.778-36.105-37.818-5.73-37.023-24.564-37.036-31.081-0.032-15.634 6.887-26.614 19.542-32.197z" fill="#FFFFFF" p-id="1741"></path><path d="M475.101 342.797h-59.183c-4.467 0-24.753-1.896-26.986-39.863 0 0-20.101 11.537-20.101 30.706s17.681 36.848 26.118 36.848h65.263l14.889-27.691zM377.804 734.781c0 5.605-4.543 10.147-10.147 10.147h-1.377c-5.605 0-10.147-4.543-10.147-10.147V515.483c0-5.605 4.543-10.147 10.147-10.147h1.377c5.605 0 10.147 4.543 10.147 10.147v219.298z" fill="#FFFFFF" p-id="1742"></path><path d="M419.943 734.781c0 5.605-4.543 10.147-10.147 10.147h-1.377c-5.605 0-10.147-4.543-10.147-10.147V515.483c0-5.605 4.543-10.147 10.147-10.147h1.377c5.605 0 10.147 4.543 10.147 10.147v219.298z" fill="#FFFFFF" p-id="1743"></path><path d="M464.491 734.781c0 5.605-4.543 10.147-10.147 10.147h-1.377c-5.605 0-10.147-4.543-10.147-10.147V515.483c0-5.605 4.543-10.147 10.147-10.147h1.377c5.605 0 10.147 4.543 10.147 10.147v219.298z" fill="#FFFFFF" p-id="1744"></path><path d="M395.304 235.32L485.13 201l230.59 603.514-89.826 34.321z" fill="#26C6DA" p-id="1745"></path><path d="M199.979 393.648l54.938-20.988c6.606-2.524 33.748-9.704 44.175 17.591 6.443 16.864-0.898 31.024-9.374 35.956-4.753-16.613-19.797-33.578-41.597-25.449-23.192 8.648-53.55 20.457-53.55 20.457l5.408-27.567z" fill="#FFFFFF" p-id="1746"></path><path d="M234.828 410.817s13.056 30.267 36.081 25.397c26.101-5.521 43.924-4.759 49.973 15.244 4.851 16.042 0.702 32.605-6.427 35.327 0 0-10.355-29.713-40.702-23.101-37.374 8.144-43.351-9.734-45.689-15.817-5.611-14.591-3.065-27.317 6.764-37.05z" fill="#FFFFFF" p-id="1747"></path><path d="M352.867 476.777l-55.286 21.12c-4.173 1.594-23.734 7.232-39.37-27.438 0 0-14.808 17.563-7.967 35.469 6.841 17.907 29.518 27.724 37.399 24.713l60.965-23.29 4.259-30.574zM401.402 878.414c2 5.235-0.622 11.101-5.857 13.101l-0.691 0.264c-5.235 2-11.101-0.622-13.101-5.857l-78.548-205.607c-2-5.235 0.622-11.101 5.857-13.101l0.691-0.264c5.235-2 11.101 0.622 13.101 5.857l78.548 205.607z" fill="#FFFFFF" p-id="1748"></path><path d="M440.7 863.401c2 5.235-0.622 11.101-5.857 13.101l-0.691 0.264c-5.235 2-11.101-0.622-13.101-5.857l-78.547-205.606c-2-5.235 0.622-11.101 5.857-13.101l0.691-0.264c5.235-2 11.101 0.622 13.101 5.857L440.7 863.401z" fill="#FFFFFF" p-id="1749"></path><path d="M482.807 847.315c2 5.235-0.622 11.101-5.857 13.101l-0.691 0.264c-5.235 2-11.101-0.622-13.101-5.857l-78.547-205.606c-2-5.235 0.622-11.101 5.857-13.101l0.691-0.264c5.235-2 11.101 0.622 13.101 5.857l78.547 205.606z" fill="#FFFFFF" p-id="1750"></path><path d="M793.973 710.354L606.309 219.119c-11.845-31.006-46.582-46.539-77.588-34.694L172.224 322.289c-2.8 1.069-5.443 0.643-7.98 5.459H43.56c-16.596 0-30.049 12.902-30.049 29.498s13.453 29.498 30.049 29.498h90.566-3.423 18.03c16.596 0 30.049 13.504 30.049 30.1s-13.453 30.1-30.049 30.1H70.606c-16.596 0-30.049 12.902-30.049 29.498S54.01 505.94 70.606 505.94h107.609L271.2 750.349h-50.347c-16.596 0-30.049 12.902-30.049 29.498 0 16.596 13.453 29.498 30.049 29.498h81.134c16.596 0 30.049 12.88 30.049 29.476 0 14.577-10.383 27.187-24.156 29.929l-5.893 1.005c-16.596 0-30.049 13.399-30.049 29.995 0 16.596 13.453 29.995 30.049 29.995h78.128c1.595 0 3.15-0.836 4.679-1.075 6.01-0.347 12.07-1.932 17.994-4.196l356.496-136.359c31.002-11.849 46.535-46.755 34.689-77.761z" fill="#B2E4FB" p-id="1751"></path><path d="M380.114 937.567h-78.128c-20.885 0-37.875-16.966-37.875-37.821 0-20.622 16.612-37.441 37.175-37.815l5.16-0.879c10.133-2.067 17.762-11.607 17.762-22.234 0-12.141-9.762-21.651-22.223-21.651h-81.134c-21.238 0-37.875-16.395-37.875-37.324s16.637-37.324 37.875-37.324h38.997l-87.03-228.757H70.606c-21.238 0-37.875-16.394-37.875-37.324s16.637-37.324 37.875-37.324h78.127c12.254 0 22.223-9.992 22.223-22.274s-9.969-22.274-22.223-22.274H43.561c-21.238 0-37.875-16.394-37.875-37.324 0-20.929 16.637-37.324 37.875-37.324h116.663c4.676-2.207 365.674-142.796 365.674-142.796 7.827-2.99 15.979-4.5 24.258-4.5 27.975 0 53.479 17.562 63.464 43.701l187.664 491.235c13.397 35.067-4.192 74.481-39.208 87.862L405.582 931.78c-7.092 2.709-13.56 4.236-19.753 4.662-0.18 0.052-0.382 0.122-0.586 0.187-1.189 0.374-2.987 0.938-5.129 0.938zM220.852 758.172c-12.461 0-22.223 9.519-22.223 21.672s9.762 21.672 22.223 21.672h81.134c21.238 0 37.875 16.385 37.875 37.302 0 18.276-12.808 34.09-30.454 37.603a7.874 7.874 0 0 1-0.212 0.039l-5.893 1.005a7.846 7.846 0 0 1-1.316 0.112c-12.254 0-22.223 9.945-22.223 22.169s9.969 22.169 22.223 22.169h77.843c0.189-0.052 0.491-0.146 0.725-0.22 0.814-0.255 1.827-0.573 3.032-0.761 0.25-0.04 0.503-0.067 0.756-0.081 4.742-0.274 9.862-1.482 15.651-3.694l356.494-136.357c26.958-10.3 40.493-40.65 30.176-67.656L598.998 221.912c-7.685-20.118-27.313-33.635-48.843-33.635a52.058 52.058 0 0 0-18.643 3.458S167.148 335.573 164.243 335.573H43.561c-12.461 0-22.223 9.52-22.223 21.672 0 12.153 9.762 21.672 22.223 21.672h105.173c20.884 0 37.874 17.013 37.874 37.926s-16.99 37.926-37.875 37.926H70.606c-12.461 0-22.223 9.52-22.223 21.672 0 12.153 9.762 21.672 22.223 21.672h107.609a7.825 7.825 0 0 1 7.314 5.043l92.985 244.408a7.828 7.828 0 0 1-7.314 10.609h-50.348z" fill="#FFFFFF" stroke="#FFFFFF" stroke-width="10" p-id="1752"></path><path d="M395.304 235.32L485.13 201l230.59 603.514-89.826 34.321z" fill="#26C6DA" p-id="1753"></path><path d="M199.979 393.648l54.938-20.988c6.606-2.524 33.748-9.704 44.175 17.591 6.443 16.864-0.898 31.024-9.374 35.956-4.753-16.613-19.797-33.578-41.597-25.449-23.192 8.648-53.55 20.457-53.55 20.457l5.408-27.567z" fill="#FFFFFF" p-id="1754"></path><path d="M234.828 410.817s13.056 30.267 36.081 25.397c26.101-5.521 43.924-4.759 49.973 15.244 4.851 16.042 0.702 32.605-6.427 35.327 0 0-10.355-29.713-40.702-23.101-37.374 8.144-43.351-9.734-45.689-15.817-5.611-14.591-3.065-27.317 6.764-37.05z" fill="#b2e4fb" p-id="1755"></path><path d="M352.867 476.777l-55.286 21.12c-4.173 1.594-23.734 7.232-39.37-27.438 0 0-14.808 17.563-7.967 35.469 6.841 17.907 29.518 27.724 37.399 24.713l60.965-23.29 4.259-30.574z" fill="#FFFFFF" p-id="1756"></path><path d="M401.402 878.414c2 5.235-0.622 11.101-5.857 13.101l-0.691 0.264c-5.235 2-11.101-0.622-13.101-5.857l-78.548-205.607c-2-5.235 0.622-11.101 5.857-13.101l0.691-0.264c5.235-2 11.101 0.622 13.101 5.857l78.548 205.607z" fill="#FFFFFF" p-id="1757"></path><path d="M440.7 863.401c2 5.235-0.622 11.101-5.857 13.101l-0.691 0.264c-5.235 2-11.101-0.622-13.101-5.857l-78.547-205.606c-2-5.235 0.622-11.101 5.857-13.101l0.691-0.264c5.235-2 11.101 0.622 13.101 5.857L440.7 863.401z" fill="#FFFFFF" p-id="1758"></path><path d="M482.807 847.315c2 5.235-0.622 11.101-5.857 13.101l-0.691 0.264c-5.235 2-11.101-0.622-13.101-5.857l-78.547-205.606c-2-5.235 0.622-11.101 5.857-13.101l0.691-0.264c5.235-2 11.101 0.622 13.101 5.857l78.547 205.606z" fill="#FFFFFF" p-id="1759"></path><path d="M802.914 91.815a7.512 7.512 0 0 1-6.237-11.689l16.935-25.323a7.51 7.51 0 0 1 10.421-2.068 7.512 7.512 0 0 1 2.068 10.42l-16.935 25.323a7.509 7.509 0 0 1-6.252 3.337z" fill="#F9CD1C" p-id="1760"></path><path d="M846.846 118.972a7.513 7.513 0 0 1-5.675-12.432l19.963-23.042a7.512 7.512 0 1 1 11.355 9.838l-19.963 23.042a7.49 7.49 0 0 1-5.68 2.594z" fill="#F9CD1C" p-id="1761"></path><path d="M871.197 164.821a7.513 7.513 0 0 1-3.358-14.237l27.284-13.605a7.512 7.512 0 1 1 6.704 13.446l-27.284 13.605a7.473 7.473 0 0 1-3.346 0.791z" fill="#F9CD1C" p-id="1762"></path><path d="M133.709 750.346H103.66c-16.596 0-30.049 12.902-30.049 29.498 0 16.596 13.453 29.498 30.049 29.498h30.049c16.596 0 30.049-12.902 30.049-29.498 0-16.596-13.453-29.498-30.049-29.498z" fill="#ffffff" p-id="1763"></path><path d="M133.709 817.168H103.66c-21.238 0-37.875-16.395-37.875-37.324s16.637-37.324 37.875-37.324h30.049c21.238 0 37.875 16.395 37.875 37.324s-16.636 37.324-37.875 37.324z m-30.049-58.996c-12.461 0-22.223 9.519-22.223 21.672s9.762 21.672 22.223 21.672h30.049c12.461 0 22.223-9.519 22.223-21.672s-9.762-21.672-22.223-21.672H103.66z" fill="#ffffff" p-id="1764"></path></svg>