<svg t="1585036622070" class="icon" viewBox="0 0 1024 1024" version="1.1" xmlns="http://www.w3.org/2000/svg" p-id="38542" width="128" height="128"><path d="M511.1808 967.68c-112.4864 0-232.5632-35.0464-321.216-93.76-80.1664-53.0944-175.744-152.3072-175.744-323.456 0-67.3536 13.1712-132.6208 39.1424-193.9584 25.1648-59.456 61.2608-112.768 107.2768-158.464C255.4368 103.872 382.5152 52.0064 518.464 52.0064c65.4208 0 129.2672 13.1968 189.7472 39.232 58.4832 25.1648 111.168 61.12 156.5824 106.8544 45.568 45.888 81.3824 99.1744 106.4704 158.4 26.0864 61.5936 39.3088 126.848 39.3088 193.9712 0 73.1264-16.3328 139.0592-48.5376 195.9424-28.7616 50.7904-70.0544 94.2976-122.7392 129.3184C751.3856 934.1696 631.7952 967.68 511.1808 967.68z" fill="#FFEB73" p-id="38543"></path><path d="M518.464 64.8064c260.2624 0 479.3088 217.5872 479.3088 485.6576C997.7728 850.176 718.4768 954.88 511.1808 954.88c-192.192 0-484.16-109.5552-484.16-404.416 0-268.0704 216.5504-485.6576 491.4432-485.6576m0-25.6c-70.5408 0-138.7136 13.5168-202.6112 40.1536-61.6704 25.7152-116.9152 62.5792-164.2368 109.5808-47.1936 46.8736-84.2112 101.568-110.0416 162.56C14.9376 414.4384 1.4208 481.3824 1.4208 550.464c0 139.968 62.7584 255.5136 181.4784 334.1312 48.1152 31.8592 103.5648 56.512 164.8 73.2544C401.8304 972.6592 458.368 980.48 511.1808 980.48c56.5632 0 115.3408-7.5648 169.9712-21.8752 61.9904-16.2432 117.5808-40.5376 165.2352-72.2176 54.3744-36.1472 97.024-81.1136 126.784-133.6704 33.3056-58.8288 50.2016-126.8736 50.2016-202.2528 0-68.8384-13.568-135.7824-40.32-198.9504-25.7152-60.736-62.4512-115.392-109.1712-162.432-46.5792-46.8992-100.608-83.776-160.6016-109.5936-62.1056-26.7264-127.6416-40.2816-194.816-40.2816z" fill="#231815" p-id="38544"></path><path d="M250.4448 342.6176c-12.928 0-26.496-0.768-40.6784-2.304-6.3232-0.6912-10.8928-6.3744-10.2144-12.6976 0.6912-6.3232 6.3616-10.9056 12.6976-10.2144 64.6016 7.0016 114.2528-2.88 147.5712-29.3632 26.1632-20.8 35.1232-46.1312 39.424-58.3168 2.3424-6.6304 4.3648-12.3392 11.2896-13.9008 4.0064-0.9088 8.1536 0.3072 11.0848 3.2512a11.52256 11.52256 0 0 1 0.1536 16.0896c-0.256 0.7168-0.5376 1.5104-0.7936 2.24-4.6336 13.0944-15.4624 43.7632-46.8096 68.672-30.592 24.3072-72.0896 36.544-123.7248 36.544z m154.8288-107.2896s0.0128 0 0 0c0.0128 0 0 0 0 0z" fill="#231815" p-id="38545"></path><path d="M228.9664 647.1168a74.3168 40.8832 0 1 0 148.6336 0 74.3168 40.8832 0 1 0-148.6336 0Z" fill="#FFB0C8" p-id="38546"></path><path d="M302.3872 486.0288m-75.2128 0a75.2128 75.2128 0 1 0 150.4256 0 75.2128 75.2128 0 1 0-150.4256 0Z" fill="#231815" p-id="38547"></path><path d="M302.3872 486.0288m-15.0528 0a15.0528 15.0528 0 1 0 30.1056 0 15.0528 15.0528 0 1 0-30.1056 0Z" fill="#FFFFFF" p-id="38548"></path><path d="M846.1952 974.8864c-9.088 0-18.8288-1.0368-29.2224-3.1104-0.4736-0.0896-0.9344-0.2176-1.3824-0.3712-0.4608-0.1536-11.5712-3.8912-24.4864-11.264-18.0224-10.2912-30.592-22.3744-37.3504-35.8784a11.53536 11.53536 0 0 1 5.1456-15.4624c5.6832-2.8416 12.608-0.5376 15.4624 5.1456 9.3184 18.624 37.0688 31.6032 47.8592 35.3792 29.9904 5.8496 52.416 1.3952 66.6624-13.2608 33.7664-34.7264 17.5488-115.84 15.808-124.0448-11.52-30.9248-25.7792-47.6544-42.3936-49.728-29.1456-3.648-63.9616 37.0176-74.9312 52.992-3.5968 5.248-10.7648 6.5792-16.0128 2.9824-5.248-3.5968-6.592-10.752-2.9952-16 0.4736-0.6912 11.712-17.024 28.5696-32.832 24.0256-22.5408 46.9632-32.6528 68.1856-30.0032 25.9968 3.2256 46.6816 25.216 61.4656 65.3696 0.1664 0.4608 0.3072 0.9216 0.4096 1.3952 0.9472 4.0832 22.5536 100.48-21.5552 145.9072-14.72 15.1552-34.5856 22.7712-59.2384 22.784z" fill="#663A29" p-id="38549"></path><path d="M805.4528 847.872c-64.2176 0-117.1328-7.1808-157.2608-21.3376-30.8736-10.8928-42.7136-22.1568-43.9552-23.3984l16.2944-16.2944-0.1152-0.1152c0.4096 0.384 41.9456 38.1056 185.0496 38.1056 6.3616 0 11.52 5.1584 11.52 11.52s-5.1712 11.52-11.5328 11.52zM771.008 905.2672c-89.1904 0-124.8384-46.0032-126.4768-48.2048-3.8144-5.0944-2.7904-12.3136 2.304-16.128 5.0688-3.8016 12.2496-2.7904 16.0896 2.2528 0.2688 0.3456 10.0352 12.6208 31.8208 23.1936 20.4544 9.9328 56.0128 20.3776 109.2864 13.7088 6.2976-0.7808 12.0704 3.6864 12.864 9.9968 0.7936 6.3104-3.6864 12.0704-9.9968 12.864-12.8256 1.6-24.768 2.3168-35.8912 2.3168z" fill="#663A29" p-id="38550"></path><path d="M777.2032 342.6176c-51.6352 0-93.12-12.2368-123.6992-36.544-31.3472-24.9088-42.1888-55.5776-46.8096-68.672-0.256-0.7168-0.5376-1.5232-0.7936-2.24a11.52256 11.52256 0 0 1 0.1536-16.0896c2.9312-2.944 7.0656-4.16 11.0848-3.2512 6.9248 1.5616 8.9472 7.2832 11.2896 13.9008 4.3008 12.1728 13.2608 37.5168 39.424 58.3168 33.3184 26.4832 82.9696 36.3648 147.5712 29.3632a11.51488 11.51488 0 0 1 12.6976 10.2144c0.6912 6.3232-3.8912 12.0064-10.2144 12.6976-14.208 1.536-27.776 2.304-40.704 2.304z m-154.8288-107.2896s-0.0128 0 0 0c-0.0128 0 0 0 0 0z" fill="#231815" p-id="38551"></path><path d="M652.6464 647.1168a74.3168 40.8832 0 1 0 148.6336 0 74.3168 40.8832 0 1 0-148.6336 0Z" fill="#FFB0C8" p-id="38552"></path><path d="M726.0672 486.0288m-75.2128 0a75.2128 75.2128 0 1 0 150.4256 0 75.2128 75.2128 0 1 0-150.4256 0Z" fill="#231815" p-id="38553"></path><path d="M726.0672 486.0288m-15.0528 0a15.0528 15.0528 0 1 0 30.1056 0 15.0528 15.0528 0 1 0-30.1056 0Z" fill="#FFFFFF" p-id="38554"></path><path d="M549.12 803.2h-71.68c-6.336 0-11.52-5.184-11.52-11.52s5.184-11.52 11.52-11.52h71.68c6.336 0 11.52 5.184 11.52 11.52s-5.184 11.52-11.52 11.52z" fill="#663A29" p-id="38555"></path></svg>