<svg t="1582043309619" class="icon" viewBox="0 0 2168 1024" version="1.1" xmlns="http://www.w3.org/2000/svg" p-id="24078" width="48" height="48"><path d="M1881.931294 270.095059c-43.369412 0-65.054118 52.645647-65.054118 157.81647 0 98.966588 21.142588 148.359529 63.36753 148.35953 41.502118 0 62.283294-50.898824 62.283294-152.816941 0.060235-102.219294-20.178824-153.359059-60.596706-153.359059zM1163.745882 279.552h-40.417882v138.420706h39.574588c53.669647 0 80.655059-23.371294 80.655059-69.993412 0-45.658353-26.624-68.427294-79.811765-68.427294zM752.64 280.636235c-35.779765 0-64.030118 13.251765-84.570353 39.875765-20.600471 26.563765-30.840471 61.018353-30.840471 103.243294 0 41.743059 10.059294 75.836235 30.177883 102.27953 20.118588 26.503529 47.706353 39.755294 82.763294 39.755294 35.779765 0 63.668706-12.709647 83.606588-38.068706 19.937882-25.359059 29.876706-59.452235 29.876706-102.27953 0-44.694588-9.697882-79.932235-29.093647-105.893647-19.395765-25.961412-46.682353-38.912-81.92-38.912z" p-id="24079" fill="#831002"></path><path d="M1991.017412 30.057412H177.453176c-62.644706 0-113.423059 50.718118-113.423058 113.423059v224.316235l-0.361412-0.421647v626.447059l151.311059-151.913412h1776.037647c62.644706 0 113.423059-50.718118 113.423059-113.423059V143.480471A113.483294 113.483294 0 0 0 1991.017412 30.057412zM532.540235 283.467294H410.202353v354.063059H318.584471V283.467294H196.427294V208.655059h336.112941v74.812235z m368.579765 299.128471c-38.851765 41.562353-89.750588 62.403765-152.696471 62.403764-61.44 0-111.375059-20.118588-149.805176-60.416-38.309647-40.417882-57.524706-92.340706-57.524706-155.828705 0-67.162353 19.636706-121.856 58.849882-164.020706s91.015529-63.247059 155.467295-63.247059c61.319529 0 110.592 20.419765 147.998117 61.199059 37.345882 40.779294 56.079059 93.184 56.079059 157.214117-0.060235 66.800941-19.456 121.072941-58.368 162.69553z m390.083765-132.638118c-32.225882 26.503529-72.463059 39.152941-120.832 38.068706h-47.043765v149.504h-91.316706v-428.875294h147.516235c106.736941 0 159.984941 45.176471 159.984942 135.710117 0 43.911529-16.022588 79.088941-48.308706 105.592471z m382.433882 187.572706H1405.891765V566.392471h89.389176V292.020706l-91.919059 20.781176V239.375059l181.308236-38.189177v365.146353h88.847058l0.120471 71.198118z m319.849412-51.079529c-26.744471 39.032471-65.415529 58.488471-116.013177 58.48847-100.773647 0-151.130353-71.619765-151.130353-214.859294 0-74.209882 13.673412-130.831059 41.020236-169.984s66.861176-58.669176 118.482823-58.669176c98.544941 0 147.817412 72.884706 147.817412 218.714352 0 71.860706-13.372235 127.277176-40.176941 166.309648z" p-id="24080" fill="#831002"></path></svg>