<svg t="1582728891449" class="icon" viewBox="0 0 1028 1024" version="1.1" xmlns="http://www.w3.org/2000/svg" p-id="991" width="48" height="48"><path d="M484.290042 153.205298c214.796027 0 386.052318 174.15894 386.052318 386.052318s-174.15894 386.052318-386.052318 386.052318-386.052318-174.15894-386.052318-386.052318 174.15894-386.052318 386.052318-386.052318z" fill="#EF813F" p-id="992"></path><path d="M641.033088 350.58543c52.247682 31.929139 46.442384 121.911258-17.415894 203.185431s-153.840397 121.911258-208.990728 89.982119-46.442384-121.911258 17.415894-203.18543S585.882757 321.55894 641.033088 350.58543z" fill="#FFFFFF" p-id="993"></path><path d="M510.413883 1024C292.715207 1024 89.529777 881.770199 22.76885 661.168874-17.868236 530.549669-3.354991 391.222516 60.503287 272.213907S231.759578 63.223179 362.378783 22.586092C513.316532-23.856292 672.962227 2.267549 803.581433 92.249669c26.123841 17.415894 31.929139 55.150331 14.513245 81.274172-17.415894 26.123841-55.150331 31.929139-81.274173 14.513245-98.690066-69.663576-223.503974-89.982119-339.609933-55.150331-101.592715 31.929139-182.866887 98.690066-232.211921 191.574834-49.345033 92.884768-60.955629 200.282782-29.02649 301.875497 63.858278 208.990729 284.459603 325.096689 493.450331 261.238411 208.990729-63.858278 325.096689-284.459603 261.238411-493.450332-8.707947-31.929139 8.707947-63.858278 37.734437-72.566225 31.929139-8.707947 63.858278 8.707947 72.566225 37.734437 81.274172 269.946358-69.663576 554.40596-339.609934 638.582782-49.345033 17.415894-101.592715 26.123841-150.937748 26.123841z" fill="#040000" p-id="994"></path><path d="M490.09534 463.788742c20.318543-17.415894 52.247682-17.415894 69.663576 2.902649 17.415894 20.318543 17.415894 49.345033 0 66.760927-20.318543 17.415894-52.247682 17.415894-69.663576-2.902649-17.415894-17.415894-17.415894-46.442384 0-66.760927zM838.413221 214.160927c20.318543-17.415894 52.247682-17.415894 69.663576 2.902649 17.415894 20.318543 17.415894 49.345033 0 66.760927-17.415894 20.318543-49.345033 23.221192-69.663576 2.902649s-23.221192-49.345033-2.902649-69.663576c0 0 2.902649 0 2.902649-2.902649z" fill="#040000" p-id="995"></path><path d="M661.351631 283.824503c-5.805298 0-8.707947 0-14.513245 2.902649l-255.433112 98.690066c-20.318543 8.707947-29.02649 29.02649-20.318544 49.345034 8.707947 17.415894 29.02649 29.02649 46.442385 20.318543l206.088079-78.371524-5.805298 214.796027c0 20.318543 14.513245 37.734437 34.831788 37.734437s37.734437-14.513245 37.734437-34.831788L699.086068 321.55894c0-20.318543-17.415894-37.734437-37.734437-37.734437z" fill="#040000" p-id="996"></path><path d="M394.307923 727.929801c5.805298 0 8.707947 0 14.513245-2.902649l255.433112-98.690066c20.318543-8.707947 29.02649-29.02649 20.318543-49.345033-8.707947-17.415894-29.02649-29.02649-46.442384-20.318543l-206.088079 78.371523 5.805298-214.796027c0-20.318543-14.513245-37.734437-34.831788-37.734437s-37.734437 14.513245-37.734438 34.831788l-5.805298 269.946358c-2.902649 23.221192 11.610596 40.637086 34.831789 40.637086-2.902649 0-2.902649 0 0 0z" fill="#040000" p-id="997"></path></svg>