<svg t="1583943380640" class="icon" viewBox="0 0 1024 1024" version="1.1" xmlns="http://www.w3.org/2000/svg" p-id="8299" width="128" height="128"><path d="M110.592 1013.76c-29.696 0-57.344-11.264-78.336-32.256-20.992-20.992-32.256-48.64-32.256-78.336V456.192c0-63.488 51.712-114.688 114.688-114.688H242.176c3.584 0 7.168-0.512 10.752-1.536 108.032-31.744 116.224-122.368 116.224-123.392 0-4.096 1.536-20.48 2.56-36.864 2.56-35.84 13.312-86.528 53.248-121.856 54.272-49.152 123.904-48.128 137.216-47.104 4.096 0 9.216 0.512 14.336 1.536 118.784 18.432 153.6 135.68 155.136 195.584 1.536 25.6-1.536 68.608-4.096 99.84h105.472c28.672 0 55.808 5.12 80.384 15.36 113.152 47.104 112.64 159.232 109.568 193.024-0.512 6.144-1.536 11.776-3.072 17.92l-80.896 349.184c-0.512 2.56-1.536 5.632-2.048 8.192-9.728 30.72-26.624 56.832-50.176 77.824-32.256 28.16-74.24 44.032-118.784 44.032l-657.408 0.512c0.512 0 0.512 0 0 0z m4.608-601.088c-23.552 0-43.008 19.456-43.008 43.008v446.976c0 10.24 4.096 19.968 11.264 27.648 7.168 7.168 16.896 11.264 27.648 11.264l656.896-1.024c27.136 0 52.736-9.216 71.68-26.112 13.824-12.288 23.552-27.648 29.184-45.568 0.512-1.024 0.512-2.048 1.024-3.072l80.896-349.184c0.512-3.072 1.024-5.632 1.536-8.192 2.56-27.136 1.024-92.672-65.536-120.32-15.872-6.656-33.792-9.728-53.248-9.728h-144.384c-10.24 0-19.968-4.096-26.624-11.776-6.656-7.68-10.24-17.92-9.216-27.648 2.56-25.088 9.216-97.792 7.68-128.512v-1.024c0-4.608-4.608-113.152-94.72-127.488-2.048-0.512-4.096-0.512-6.656-0.512-2.048 0-51.2-2.56-85.504 28.672-23.04 20.48-28.16 54.784-29.696 73.728-1.024 15.872-2.048 32.256-2.56 36.864-0.512 6.144-12.288 141.824-167.424 187.392-10.24 3.072-20.992 4.608-31.744 4.608H115.2z" fill="#A7A7A7" p-id="8300"></path><path d="M179.712 379.392h71.68v597.504h-71.68z" fill="#A7A7A7" p-id="8301"></path></svg>