<svg t="1585042139015" class="icon" viewBox="0 0 1024 1024" version="1.1" xmlns="http://www.w3.org/2000/svg" p-id="39904" width="48" height="48"><path d="M1014.442667 478.122667C981.034667 404.010667 770.474667 128 511.573333 128 229.802667 128 0 436.736 0 512c0 75.221333 229.802667 384 511.573333 384 179.541333 0 324.906667-126.378667 395.605334-201.728a42.666667 42.666667 0 1 0-62.122667-58.410667C783.786667 701.141333 659.029333 810.666667 511.573333 810.666667c-228.394667 0-411.776-247.125333-425.898666-298.666667 14.08-51.541333 197.418667-298.666667 425.898666-298.666667 202.837333 0 392.576 227.584 425.088 299.861334a42.666667 42.666667 0 1 0 77.781334-35.072" fill="#999999" p-id="39905"></path><path d="M334.378667 512c0 92.501333 78.08 170.666667 170.496 170.666667 97.194667 0 170.496-73.386667 170.496-170.666667 0-97.322667-73.301333-170.666667-170.496-170.666667-97.237333 0-170.496 73.344-170.496 170.666667z m255.744 0c0 49.450667-35.84 85.333333-85.248 85.333333-40.32 0-85.248-35.072-85.248-85.333333 0-49.450667 35.84-85.333333 85.248-85.333333s85.248 35.882667 85.248 85.333333z" fill="#999999" p-id="39906"></path></svg>