<svg t="1584513665246" class="icon" viewBox="0 0 1024 1024" version="1.1" xmlns="http://www.w3.org/2000/svg" p-id="25781" width="64" height="64"><path d="M511.513992 683.315358c-184.755434 0-334.48153-149.726096-334.48153-334.48153s149.726096-334.48153 334.48153-334.48153 334.48153 149.726096 334.48153 334.48153c-0.243259 184.633804-149.847725 334.238271-334.48153 334.48153zM511.513992 79.059271C363.490712 79.059271 243.563879 198.986103 243.563879 347.009384S363.490712 614.959496 511.513992 614.959496c148.023281 0 267.950113-119.926832 267.950113-267.950112 0.243259-148.023281-119.561943-268.193372-267.463594-268.436632h-0.486519v0.486519z m0 0" fill="#0d6bba" p-id="25782" data-spm-anchor-id="a313x.7781069.0.i70" class=""></path><path d="M80.945041 1009.769331h-3.162371c-17.879558-1.702815-31.01556-17.39304-29.434374-35.272597 13.257632-177.457655 125.886685-332.170567 290.694856-399.310132 16.055113-5.594964 33.569783 2.067704 40.502673 17.636299 6.93289 15.446965 0.729778 33.691412-14.109039 41.840598C221.913802 691.707804 123.758677 826.108564 113.055268 980.334957c-1.581185 16.541632-15.446965 29.312745-32.110227 29.434374z m860.651384 0c-16.663262-0.12163-30.529041-12.892743-32.110227-29.434374-9.730372-110.43972-64.706972-211.878845-151.7938-280.477967-6.446371-5.959853-10.33852-14.109039-10.703409-22.866374-0.364889-8.757335 2.797482-17.27141 8.635705-23.717781 12.284594-13.500891 33.204894-14.352298 46.705785-2.067704 100.1012 79.059271 162.862098 196.188621 173.322247 323.291603 1.581185 17.879558-11.676446 33.569783-29.434375 35.272597h-4.621926z m0 0" fill="#0d6bba" p-id="25783" data-spm-anchor-id="a313x.7781069.0.i71" class=""></path><path d="M511.513992 348.712199m-210.540919 0a210.540919 210.540919 0 1 0 421.081839 0 210.540919 210.540919 0 1 0-421.081839 0Z" fill="#0d6bba" opacity=".2" p-id="25784" data-spm-anchor-id="a313x.7781069.0.i72" class=""></path></svg>